<svg width="99" height="121" viewBox="0 0 99 121" fill="none" xmlns="http://www.w3.org/2000/svg">
<path d="M49.1596 0H0.30957V49.09H49.1596V0Z" fill="#824B47"/>
<path d="M49.1501 3.64062C47.7501 3.64062 46.7701 3.64062 45.9001 3.78062C43.954 4.0146 42.0393 4.46058 40.1901 5.11063C34.4654 7.12685 29.6563 11.1338 26.6401 16.4006C25.404 18.5484 24.4814 20.8618 23.9001 23.2706C23.889 23.3836 23.8391 23.4892 23.7589 23.5694C23.6786 23.6497 23.573 23.6996 23.4601 23.7106C22.8701 23.8506 22.2701 24.0006 21.6901 24.1906C19.7867 24.8075 17.9586 25.636 16.2401 26.6606C11.5669 29.4725 7.91566 33.7054 5.82008 38.7406C5.02916 40.5887 4.48125 42.5316 4.19008 44.5206C4.00008 45.8306 4.00008 47.1506 3.83008 49.0606L8.59008 49.1606C8.59008 49.1606 8.79008 30.0006 27.9001 27.7906C27.9001 27.7906 29.5301 9.30062 49.1801 8.42062L49.1501 3.64062Z" fill="#824B47"/>
<path d="M49.1198 8.93945C47.8342 8.99556 46.5525 9.11907 45.2798 9.30945C42.3044 9.88536 39.4906 11.1036 37.0345 12.8791C34.5785 14.6546 32.5395 16.9447 31.0598 19.5895C30.2784 20.9823 29.6641 22.4626 29.2298 23.9995C28.8445 25.3029 28.5998 26.6439 28.4998 27.9995C28.4998 28.2895 28.4198 28.4495 28.0698 28.4895C27.1832 28.5697 26.3018 28.6999 25.4298 28.8795C23.5269 29.2824 21.6916 29.9559 19.9798 30.8795C17.6272 32.1519 15.5424 33.8667 13.8398 35.9295C12.4623 37.5813 11.3552 39.4411 10.5598 41.4395C9.90296 43.0399 9.46567 44.7218 9.2598 46.4395C9.1798 47.2995 9.1198 48.2495 9.0498 49.0995H49.1198V8.93945Z" fill="#4B8081"/>
<path d="M49.1199 3.21094L47.4299 3.29094C45.3905 3.39503 43.3735 3.76482 41.4299 4.39094C39.1817 5.0929 37.0414 6.10247 35.0699 7.39094C33.1074 8.64013 31.3186 10.1431 29.7499 11.8609C27.9975 13.7855 26.5293 15.9507 25.3899 18.2909C24.6457 19.8356 24.0562 21.4502 23.6299 23.1109C23.6149 23.2041 23.5727 23.2909 23.5087 23.3602C23.4447 23.4296 23.3616 23.4785 23.2699 23.5009C20.947 24.0747 18.7202 24.9843 16.6599 26.2009C13.9993 27.7429 11.6301 29.7399 9.65988 32.1009C7.32125 34.905 5.58214 38.1586 4.54988 41.6609C3.83544 44.0447 3.44197 46.5131 3.37988 49.0009H4.37988C4.48988 47.6809 4.54988 46.3509 4.73988 45.0009C5.03237 43.0122 5.58023 41.0695 6.36988 39.2209C7.3787 36.7791 8.76569 34.5113 10.4799 32.5009C12.2788 30.3879 14.406 28.5781 16.7799 27.1409C18.5018 26.1254 20.3292 25.3005 22.2299 24.6809C22.8121 24.5045 23.4028 24.3576 23.9999 24.2409C24.1103 24.226 24.2127 24.1746 24.2906 24.0949C24.3685 24.0152 24.4175 23.9117 24.4299 23.8009C25.0187 21.3929 25.9445 19.0801 27.1799 16.9309C30.1859 11.6751 34.9752 7.66983 40.6799 5.64094C42.5291 4.99089 44.4438 4.54491 46.3899 4.31094C47.2599 4.19094 48.2399 4.21094 49.1199 4.17094V3.21094Z" fill="#E5B378"/>
<path d="M11.8896 47.3507C11.9429 46.9236 12.0332 46.5021 12.1596 46.0907C12.543 45.0303 13.2302 44.1064 14.1354 43.4342C15.0406 42.7619 16.1237 42.3712 17.2496 42.3107L17.4696 42.2607C17.7196 42.2607 18.0696 42.3207 18.1396 42.0407C18.1454 41.7754 18.0568 41.5167 17.8896 41.3107C17.6036 40.9703 17.4191 40.5562 17.3572 40.1159C17.2953 39.6756 17.3585 39.2268 17.5396 38.8207C17.6031 38.6368 17.6152 38.439 17.5747 38.2487C17.5342 38.0584 17.4425 37.8828 17.3096 37.7407C17.0433 37.3933 16.7994 37.0292 16.5796 36.6507C17.4982 36.3043 18.4938 36.2144 19.4596 36.3907C20.4935 36.5532 21.47 36.9726 22.2996 37.6107C22.3566 37.5158 22.4035 37.4153 22.4396 37.3107C22.5995 36.1647 23.0974 35.0924 23.8696 34.2307C24.7072 33.2961 25.8339 32.6694 27.0696 32.4507C27.1621 32.4331 27.2571 32.4331 27.3496 32.4507C27.1696 32.8007 26.9796 33.1407 26.8096 33.4507C26.4138 34.2246 26.2074 35.0814 26.2074 35.9507C26.2074 36.8199 26.4138 37.6768 26.8096 38.4507C27.2439 39.2254 27.3858 40.1302 27.2096 41.0007C27.0588 41.5808 26.7452 42.1056 26.3058 42.5131C25.8663 42.9207 25.3194 43.194 24.7296 43.3007C24.5766 43.3154 24.4226 43.3154 24.2696 43.3007C24.2696 43.3007 22.5996 42.8807 23.0896 43.6807C23.0483 43.8515 23.0216 44.0254 23.0096 44.2007C22.9955 44.6426 22.8905 45.0769 22.7012 45.4765C22.5119 45.8761 22.2423 46.2324 21.9092 46.5232C21.5762 46.8141 21.1868 47.0332 20.7653 47.1669C20.3439 47.3007 19.8994 47.3462 19.4596 47.3007C18.7008 47.1718 17.9615 46.9467 17.2596 46.6307C16.3791 46.2083 15.3916 46.0615 14.4263 46.2096C13.4611 46.3577 12.563 46.7938 11.8496 47.4607L11.8896 47.3507Z" fill="#E5B378"/>
<path d="M23.6098 43.2592C23.3698 43.2592 23.1898 43.2592 23.0598 43.3992C23.0353 43.4436 23.0225 43.4935 23.0225 43.5442C23.0225 43.5949 23.0353 43.6448 23.0598 43.6892C24.1123 44.8099 25.3767 45.7106 26.7798 46.3392C28.3376 46.9731 30.0405 47.1635 31.6998 46.8892C32.7478 46.6511 33.6829 46.0619 34.3498 45.2192C35.2417 44.1649 35.7151 42.8196 35.6798 41.4392C35.7486 39.0706 35.2335 36.7216 34.1798 34.5992L34.7298 34.0492C36.1765 34.7885 37.7452 35.2595 39.3598 35.4392C40.8783 35.6967 42.4367 35.58 43.8998 35.0992C44.9633 34.6476 45.8561 33.8703 46.4498 32.8792C47.098 31.6954 47.2935 30.3164 46.9998 28.9992C46.7743 26.9541 45.8486 25.0499 44.3798 23.6092C44.1798 23.4092 44.0098 23.1792 43.8198 22.9592C43.0298 22.6992 43.4498 23.9592 43.4498 23.9592C44.3252 24.6225 45.0141 25.501 45.4498 26.5092C46.0888 27.914 46.3375 29.465 46.1698 30.9992C46.1375 31.3886 46.0324 31.7685 45.8598 32.1192C45.5939 32.6284 45.2084 33.0655 44.7364 33.393C44.2644 33.7205 43.72 33.9285 43.1498 33.9992C42.0818 34.2025 40.9884 34.2362 39.9098 34.0992C37.0242 33.8728 34.2709 32.7938 31.9998 30.9992C31.3898 30.5192 30.8198 29.9992 30.3098 29.5492L29.5398 30.1492C29.9598 30.6192 30.3598 31.0492 30.7398 31.4892C32.007 32.944 32.9572 34.6468 33.5298 36.4892C34.1108 38.2818 34.3416 40.1694 34.2098 42.0492C34.1577 43.0111 33.8691 43.9453 33.3698 44.7692C33.046 45.2354 32.6039 45.607 32.089 45.846C31.5741 46.085 31.0049 46.1827 30.4398 46.1292C28.8409 46.1657 27.2651 45.7422 25.8998 44.9092C25.2202 44.5551 24.629 44.0527 24.1698 43.4392C23.9964 43.344 23.8063 43.2829 23.6098 43.2592Z" fill="#E5B378"/>
<path d="M0.30957 15.8105C1.13388 15.93 1.88051 16.3624 2.39446 17.0179C2.9084 17.6733 3.15017 18.5015 3.06957 19.3305C2.91957 20.1505 2.71957 20.9705 2.60957 21.8005C2.47845 22.9589 2.72016 24.1289 3.29957 25.1405C3.33548 25.2207 3.39268 25.2894 3.46494 25.3393C3.5372 25.3891 3.62175 25.4182 3.7094 25.4234C3.79705 25.4286 3.88443 25.4096 3.96204 25.3685C4.03965 25.3275 4.10452 25.2659 4.14957 25.1905C4.59227 24.5511 4.79096 23.774 4.70957 23.0005C5.28978 22.89 5.88933 22.9438 6.4406 23.1559C6.99187 23.3679 7.47294 23.7297 7.82957 24.2005C8.37285 23.603 8.69415 22.8369 8.73957 22.0305C8.77638 21.8678 8.82313 21.7075 8.87957 21.5505C9.44097 21.8954 9.87321 22.4155 10.1096 23.0305C10.2296 23.3405 10.3496 23.3405 10.6396 23.2605C12.3553 22.8128 14.1735 22.9791 15.7796 23.7305C15.8396 23.7305 15.8696 23.8105 15.9596 23.9105L14.9596 24.4605C11.9596 26.0805 9.14957 27.8505 6.35957 29.7205C5.93373 30.0428 5.47837 30.324 4.99957 30.5605C4.60272 30.7264 4.17071 30.7904 3.74282 30.7467C3.31493 30.7031 2.90474 30.5531 2.54957 30.3105C1.99957 30.0005 1.43957 29.5505 0.86957 29.1905C0.688721 29.1112 0.501359 29.0476 0.30957 29.0005V15.8105Z" fill="#E5B378"/>
<path d="M29 0C29.39 0.64 29.91 1.54 30.32 2.16C30.7036 2.66086 30.9114 3.27414 30.9114 3.905C30.9114 4.53586 30.7036 5.14914 30.32 5.65C28.36 8.35 26.66 11.16 25 14C24.64 14.64 24.3 15.3 24 16C23.6216 15.3979 23.4014 14.7099 23.36 14C23.0501 12.7232 23.1091 11.3846 23.53 10.14C22.7844 9.87675 22.1523 9.36469 21.74 8.69C22.1952 8.63312 22.6462 8.54626 23.09 8.43C23.5788 8.30013 24.022 8.03701 24.37 7.67C23.9538 7.34153 23.6209 6.91949 23.3985 6.43817C23.1761 5.95686 23.0704 5.42986 23.09 4.9C23.09 4.62 23.16 4.49 23.48 4.5C24.0729 4.55564 24.6667 4.40365 25.16 4.07C25.69 3.71 25.65 3.26 25.08 3C24.1421 2.56461 23.1129 2.3622 22.08 2.41C21.4208 2.47282 20.7703 2.60693 20.14 2.81C19.7119 2.93498 19.2629 2.97214 18.82 2.91924C18.3771 2.86635 17.9495 2.7245 17.5628 2.50221C17.1762 2.27992 16.8384 1.98177 16.5698 1.62568C16.3013 1.26958 16.1074 0.86288 16 0.43C16 0.36 16.12 0.07 16.12 0H29Z" fill="#E5B378"/>
<path d="M32.6497 27.1107C33.8057 26.4474 35.1169 26.1023 36.4497 26.1107C37.3269 26.1964 38.1792 26.4511 38.9597 26.8607C39.4004 27.095 39.8926 27.2156 40.3918 27.2115C40.8909 27.2075 41.3811 27.0791 41.818 26.8378C42.255 26.5965 42.6248 26.25 42.894 25.8296C43.1632 25.4093 43.3232 24.9285 43.3597 24.4307C43.3898 24.0546 43.3898 23.6768 43.3597 23.3007C43.3597 23.0507 43.4597 22.9507 43.6697 22.9107C43.8692 22.8907 44.0702 22.8907 44.2697 22.9107C44.7066 22.9213 45.1409 22.8409 45.545 22.6745C45.9492 22.5082 46.3143 22.2596 46.6171 21.9445C46.92 21.6294 47.1539 21.2548 47.3042 20.8444C47.4544 20.434 47.5176 19.9968 47.4897 19.5607C47.3718 18.8733 47.1738 18.202 46.8997 17.5607C46.6164 16.8942 46.4312 16.1903 46.3497 15.4707C46.2149 14.4225 46.4444 13.3599 46.9997 12.4607L47.5197 11.7207H47.0897C46.6483 11.8384 46.2142 11.982 45.7897 12.1507C45.0173 12.4794 44.3292 12.9784 43.7768 13.6105C43.2244 14.2425 42.822 14.9913 42.5997 15.8007C42.4685 16.3258 42.3816 16.861 42.3397 17.4007C42.2697 18.0007 42.0397 18.1607 41.5497 17.8807C41.3872 17.7902 41.2302 17.69 41.0797 17.5807C40.7953 17.3722 40.4628 17.239 40.1131 17.1935C39.7634 17.148 39.4079 17.1918 39.0797 17.3207C38.8641 17.4057 38.6296 17.431 38.4009 17.3941C38.1721 17.3571 37.9575 17.2592 37.7797 17.1107C37.4101 16.8555 37.0261 16.6218 36.6297 16.4107C36.3183 17.3966 36.254 18.4439 36.4423 19.4605C36.6306 20.477 37.0658 21.4318 37.7097 22.2407L37.3497 22.3107C36.4798 22.4215 35.6482 22.7354 34.922 23.227C34.1959 23.7186 33.5956 24.3742 33.1697 25.1407C32.7543 25.6872 32.5518 26.366 32.5997 27.0507L32.6497 27.1107Z" fill="#E5B378"/>
<path d="M44.6601 42.9107C45.2301 42.8307 45.5001 42.4107 45.7501 41.9607C45.86 41.7452 45.9248 41.5095 45.9405 41.2682C45.9563 41.0268 45.9227 40.7847 45.8417 40.5567C45.7608 40.3287 45.6343 40.1197 45.4698 39.9422C45.3054 39.7648 45.1065 39.6228 44.8854 39.5248C44.6642 39.4268 44.4254 39.3749 44.1835 39.3723C43.9416 39.3697 43.7017 39.4164 43.4785 39.5096C43.2552 39.6028 43.0534 39.7405 42.8851 39.9144C42.7169 40.0882 42.5859 40.2945 42.5001 40.5207C42.4552 40.6314 42.4017 40.7384 42.3401 40.8407C41.4701 40.1907 40.6001 39.5807 39.7801 38.9107C38.9601 38.2407 34.1701 33.5007 33.2801 32.7207L32.8301 33.1707C34.3001 34.8507 39.7401 40.3407 40.8301 42.2807C40.3775 42.4719 39.9938 42.7962 39.7301 43.2107C39.5202 43.6079 39.4664 44.0692 39.5792 44.504C39.6921 44.9389 39.9635 45.3158 40.3401 45.5607C40.5265 45.6881 40.7365 45.7771 40.9578 45.8225C41.179 45.8679 41.4071 45.8687 41.6287 45.825C41.8502 45.7812 42.0609 45.6938 42.2483 45.5677C42.4357 45.4416 42.5961 45.2795 42.7201 45.0907C42.8079 44.8524 42.9081 44.6187 43.0201 44.3907C42.9718 44.811 43.0644 45.2354 43.2834 45.5974C43.5024 45.9594 43.8354 46.2384 44.2301 46.3907C44.6617 46.5461 45.1367 46.5288 45.5559 46.3425C45.9751 46.1562 46.3062 45.8152 46.4801 45.3907C46.5746 45.1751 46.6236 44.9422 46.6239 44.7068C46.6243 44.4713 46.576 44.2384 46.4821 44.0224C46.3882 43.8065 46.2508 43.6123 46.0783 43.452C45.9059 43.2916 45.7022 43.1687 45.4801 43.0907C45.3301 43.0307 44.8501 42.9907 44.7001 42.9107" fill="#E5B378"/>
<path d="M14.79 14.16C15.8271 13.4383 16.6274 12.4258 17.09 11.25C17.3635 10.6198 17.4933 9.9366 17.47 9.25V9.12C17.31 9.19 17.16 9.27 17 9.33C16.1742 9.70597 15.2813 9.91211 14.3742 9.93616C13.4672 9.96021 12.5646 9.80168 11.72 9.47C10.6434 9.05718 9.70206 8.3546 9 7.44C9.1 7.28 9.17 7.15 9.25 7.03C10.0208 5.9269 10.6115 4.70839 11 3.42C11.32 2.42 11.55 1.06 11.77 0H10.37C10.2028 1.36945 9.86689 2.71297 9.37 4C8.98777 4.94608 8.48711 5.83988 7.88 6.66L7.61 6.29C6.72771 4.96637 5.47086 3.93581 4 3.33C3.88133 3.26859 3.74662 3.24524 3.61421 3.26313C3.48179 3.28103 3.35811 3.33929 3.26 3.43C3.16989 3.51761 3.10904 3.63091 3.08577 3.75442C3.0625 3.87793 3.07795 4.00561 3.13 4.12C3.44729 5.09709 3.96117 5.99892 4.64 6.77C5.1 7.28 5.64 7.77 6.11 8.25C6.02695 8.32851 5.93653 8.39883 5.84 8.46C4.90011 9.00838 3.89119 9.42876 2.84 9.71C2.00135 9.881 1.15314 10.0012 0.299999 10.07V11.38C1.0872 11.3952 1.87233 11.2941 2.63 11.08C4.09218 10.7439 5.49255 10.1803 6.78 9.41C7.92291 10.4874 8.64963 11.933 8.83251 13.493C9.0154 15.053 8.64274 16.6275 7.78 17.94C8.78 18.36 11.43 17.74 12.97 15.79C13.1404 16.569 13.4905 17.2975 13.9922 17.9173C14.494 18.5371 15.1335 19.0311 15.86 19.36C16.6038 19.7013 17.4277 19.8294 18.24 19.73C18.4396 18.622 18.2499 17.4791 17.7032 16.4949C17.1564 15.5107 16.2862 14.7459 15.24 14.33C15.1288 14.2635 15.0219 14.1901 14.92 14.11" fill="#E5B378"/>
<path d="M10.38 0C10.2128 1.36945 9.87689 2.71297 9.38 4C8.99463 4.9466 8.4906 5.84042 7.88 6.66L7.61 6.29C6.72771 4.96637 5.47086 3.93581 4 3.33C3.88133 3.26859 3.74662 3.24524 3.61421 3.26313C3.48179 3.28103 3.35811 3.33929 3.26 3.43C3.16989 3.51761 3.10904 3.63091 3.08577 3.75442C3.0625 3.87793 3.07795 4.00561 3.13 4.12C3.44729 5.09709 3.96117 5.99892 4.64 6.77C5.1 7.28 5.64 7.77 6.11 8.25C6.02695 8.32851 5.93653 8.39883 5.84 8.46C4.90011 9.00838 3.89119 9.42876 2.84 9.71C2.00135 9.881 1.15314 10.0012 0.299999 10.07V0H10.38Z" fill="#4B8081"/>
<path d="M8.12988 49.0905C8.12988 48.3805 8.18988 47.5705 8.26988 46.8705C8.48554 44.7325 9.02153 42.6391 9.85988 40.6605C11.4627 36.8769 14.1004 33.6223 17.4699 31.2705C19.8008 29.6145 22.45 28.4602 25.2499 27.8805L27.5799 27.4305C27.7399 26.5805 27.8899 25.7105 28.0699 24.8405C28.5352 22.6815 29.3528 20.6138 30.4899 18.7205C32.5321 15.2176 35.5241 12.3643 39.1199 10.4905C40.9688 9.51824 42.9497 8.8209 44.9999 8.42049C46.3674 8.13141 47.7622 7.9906 49.1599 8.00049V8.95049C47.8743 9.0066 46.5925 9.1301 45.3199 9.32049C42.3454 9.89527 39.5321 11.112 37.0761 12.8857C34.6202 14.6594 32.5807 16.9476 31.0999 19.5905C30.3142 20.9813 29.6998 22.4621 29.2699 24.0005C28.8846 25.304 28.6399 26.6449 28.5399 28.0005C28.5399 28.2905 28.4499 28.4505 28.1099 28.4905C27.2232 28.57 26.3417 28.7002 25.4699 28.8805C23.5665 29.2817 21.7309 29.9553 20.0199 30.8805C17.6673 32.153 15.5825 33.8677 13.8799 35.9305C12.501 37.5666 11.3936 39.4134 10.5999 41.4005C9.94092 43.0002 9.50355 44.6824 9.29988 46.4005C9.21988 47.2605 9.15988 48.2105 9.08988 49.0605L8.12988 49.0905Z" fill="#E5B378"/>
<path d="M98.0004 0H49.1504V49.09H98.0004V0Z" fill="#824B47"/>
<path d="M49.1601 3.64062C50.5601 3.64062 51.5401 3.64062 52.4101 3.78062C54.3562 4.0146 56.2709 4.46058 58.1201 5.11063C63.8438 7.12418 68.6505 11.1322 71.6601 16.4006C72.8997 18.5478 73.8257 20.8612 74.4101 23.2706C74.4208 23.382 74.4692 23.4865 74.5475 23.5665C74.6257 23.6466 74.729 23.6974 74.8401 23.7106C75.4401 23.8506 76.0401 24.0006 76.6201 24.1906C78.5227 24.8095 80.3506 25.6379 82.0701 26.6606C84.4448 28.0886 86.5723 29.892 88.3701 32.0006C90.0875 34.0143 91.4778 36.2853 92.4901 38.7306C93.2824 40.5775 93.8271 42.521 94.1101 44.5106C94.3001 45.8206 94.3601 47.1406 94.4701 49.0506L89.7101 49.1506C89.7101 49.1506 89.5201 30.0006 70.4101 27.7906C70.4101 27.7906 68.7801 9.30062 49.1201 8.42062L49.1601 3.64062Z" fill="#824B47"/>
<path d="M49.1797 8.93945C50.4585 8.9971 51.7336 9.1206 52.9997 9.30945C55.9804 9.88132 58.8002 11.0977 61.2617 12.8734C63.7231 14.6491 65.7668 16.9412 67.2497 19.5895C68.0311 20.9823 68.6454 22.4626 69.0797 23.9995C69.462 25.3032 69.7034 26.6442 69.7997 27.9995C69.7997 28.2895 69.8897 28.4495 70.2397 28.4895C71.1231 28.569 72.0012 28.6992 72.8697 28.8795C74.7762 29.2807 76.6151 29.9542 78.3297 30.8795C80.681 32.1496 82.7629 33.8648 84.4597 35.9295C85.8438 37.5785 86.9546 39.4387 87.7497 41.4395C88.4079 43.0388 88.842 44.7213 89.0397 46.4395C89.1297 47.2995 89.1897 48.2495 89.2597 49.0995H49.1797V8.93945Z" fill="#4B8081"/>
<path d="M49.1797 3.21094L50.8797 3.29094C52.919 3.39503 54.9361 3.76482 56.8797 4.39094C59.1247 5.09292 61.2617 6.10251 63.2297 7.39094C65.1971 8.63741 66.9896 10.1407 68.5597 11.8609C70.3364 13.7649 71.8316 15.9134 72.9997 18.2409C73.7439 19.7856 74.3334 21.4002 74.7597 23.0609C74.7747 23.1541 74.8168 23.2409 74.8809 23.3102C74.9449 23.3796 75.028 23.4285 75.1197 23.4509C77.442 24.0264 79.6686 24.9359 81.7297 26.1509C84.3902 27.6929 86.7595 29.6899 88.7297 32.0509C91.0683 34.855 92.8074 38.1086 93.8397 41.6109C94.5314 44.0145 94.898 46.5 94.9297 49.0009H93.9997C93.8797 47.6809 93.8197 46.3509 93.6397 45.0009C93.3406 43.0254 92.7895 41.0963 91.9997 39.2609C90.9909 36.8191 89.6039 34.5513 87.8897 32.5409C86.0895 30.4254 83.9586 28.6153 81.5797 27.1809C79.8588 26.1635 78.0311 25.3385 76.1297 24.7209C75.5483 24.5306 74.9576 24.3704 74.3597 24.2409C74.2487 24.2248 74.1459 24.1733 74.0666 24.094C73.9873 24.0147 73.9358 23.9119 73.9197 23.8009C73.3384 21.3921 72.4157 19.0787 71.1797 16.9309C68.161 11.6623 63.3481 7.65509 57.6197 5.64094C55.7711 4.98872 53.8562 4.54268 51.9097 4.31094C51.0397 4.19094 50.0597 4.21094 49.1797 4.17094V3.21094Z" fill="#E5B378"/>
<path d="M86.4102 47.3507C86.3666 46.9221 86.276 46.4995 86.1402 46.0907C85.7579 45.0296 85.0711 44.105 84.1656 43.4326C83.2602 42.7602 82.1765 42.3699 81.0502 42.3107L80.8402 42.2607C80.5802 42.2607 80.2402 42.3207 80.1702 42.0407C80.1598 41.7764 80.245 41.5173 80.4102 41.3107C80.6979 40.9713 80.8842 40.5577 80.9479 40.1174C81.0115 39.677 80.95 39.2277 80.7702 38.8207C80.7067 38.6368 80.6946 38.439 80.7351 38.2487C80.7756 38.0584 80.8673 37.8828 81.0002 37.7407C81.2665 37.3933 81.5104 37.0292 81.7302 36.6507C80.8115 36.3048 79.816 36.2149 78.8502 36.3907C77.8128 36.5515 76.8327 36.9711 76.0002 37.6107C75.9392 37.518 75.892 37.417 75.8602 37.3107C75.7003 36.1647 75.2024 35.0924 74.4302 34.2307C73.5926 33.2961 72.4659 32.6694 71.2302 32.4507C71.1377 32.4331 71.0427 32.4331 70.9502 32.4507C71.1302 32.8007 71.3202 33.1407 71.4902 33.4507C71.886 34.2246 72.0924 35.0814 72.0924 35.9507C72.0924 36.8199 71.886 37.6768 71.4902 38.4507C71.0644 39.2284 70.9263 40.1313 71.1002 41.0007C71.2502 41.5794 71.5624 42.1033 71.9999 42.5108C72.4375 42.9182 72.9822 43.1922 73.5702 43.3007C73.7265 43.3149 73.8839 43.3149 74.0402 43.3007C74.0402 43.3007 75.7102 42.8807 75.2202 43.6807C75.2615 43.8515 75.2882 44.0254 75.3002 44.2007C75.3143 44.6426 75.4193 45.0769 75.6086 45.4765C75.798 45.8761 76.0675 46.2324 76.4006 46.5232C76.7336 46.8141 77.123 47.0332 77.5445 47.1669C77.9659 47.3007 78.4104 47.3462 78.8502 47.3007C79.609 47.1718 80.3483 46.9467 81.0502 46.6307C81.9307 46.2083 82.9182 46.0615 83.8835 46.2096C84.8487 46.3577 85.7468 46.7938 86.4602 47.4607L86.4102 47.3507Z" fill="#E5B378"/>
<path d="M74.6998 43.2599C74.9398 43.2599 75.1198 43.2599 75.2498 43.3999C75.2743 43.4443 75.2871 43.4942 75.2871 43.5449C75.2871 43.5956 75.2743 43.6455 75.2498 43.6899C74.2029 44.8126 72.9413 45.7137 71.5398 46.3399C69.982 46.9738 68.2791 47.1642 66.6198 46.8899C65.5817 46.6478 64.6574 46.0586 63.9998 45.2199C63.1037 44.168 62.6298 42.8211 62.6698 41.4399C62.596 39.0709 63.1114 36.7206 64.1698 34.5999C63.9898 34.4199 63.8098 34.2499 63.6198 34.0499C62.1762 34.7881 60.611 35.259 58.9998 35.4399C57.4813 35.6982 55.9228 35.5815 54.4598 35.0999C53.3951 34.646 52.4998 33.8695 51.8998 32.8799C51.2509 31.6968 51.0452 30.321 51.3198 28.9999C51.5613 26.9382 52.5081 25.0234 53.9998 23.5799C54.1898 23.3799 54.3698 23.1499 54.5598 22.9299C55.3498 22.6699 54.9298 23.9299 54.9298 23.9299C54.0544 24.5932 53.3654 25.4717 52.9298 26.4799C52.2614 27.887 51.9884 29.4494 52.1398 30.9999C52.1733 31.3879 52.2748 31.767 52.4398 32.1199C52.7086 32.6288 53.0962 33.0654 53.5697 33.3927C54.0432 33.72 54.5886 33.9282 55.1598 33.9999C56.2278 34.2032 57.3212 34.2369 58.3998 34.0999C61.2854 33.8735 64.0387 32.7945 66.3098 30.9999C66.9198 30.5199 67.4898 29.9999 67.9998 29.5499L68.7698 30.1499C68.3498 30.6199 67.9498 31.0499 67.5698 31.4899C66.299 32.9421 65.3483 34.6458 64.7798 36.4899C64.1939 38.2814 63.9629 40.17 64.0998 42.0499C64.1519 43.0118 64.4404 43.946 64.9398 44.7699C65.2629 45.2368 65.7048 45.6091 66.2199 45.8482C66.735 46.0872 67.3045 46.1845 67.8698 46.1299C69.4657 46.1673 71.0385 45.7437 72.3998 44.9099C73.0824 44.5562 73.677 44.0538 74.1398 43.4399C74.3132 43.3447 74.5033 43.2836 74.6998 43.2599Z" fill="#E5B378"/>
<path d="M97.9998 15.8105C97.1748 15.93 96.4272 16.362 95.9116 17.0172C95.3961 17.6723 95.152 18.5005 95.2299 19.3305C95.3799 20.1505 95.5798 20.9705 95.6998 21.8005C95.8279 22.96 95.5827 24.1301 94.9998 25.1405C94.9639 25.2207 94.9067 25.2894 94.8345 25.3393C94.7622 25.3891 94.6777 25.4182 94.59 25.4234C94.5024 25.4286 94.415 25.4096 94.3374 25.3685C94.2598 25.3275 94.1949 25.2659 94.1498 25.1905C93.7107 24.5497 93.5155 23.7728 93.5998 23.0005C93.0182 22.8916 92.4177 22.9461 91.8651 23.1579C91.3126 23.3698 90.8296 23.7307 90.4698 24.2005C89.9336 23.5995 89.6164 22.8347 89.5698 22.0305C89.533 21.8678 89.4863 21.7075 89.4298 21.5505C88.8685 21.8954 88.4362 22.4155 88.1998 23.0305C88.0798 23.3405 87.9599 23.3405 87.6599 23.2605C85.9442 22.8128 84.1259 22.9791 82.5198 23.7305C82.5198 23.7305 82.4398 23.8105 82.3398 23.9105L83.3398 24.4605C86.3398 26.0805 89.1498 27.8505 91.9498 29.7205C92.3703 30.0318 92.8189 30.303 93.2898 30.5305C93.6884 30.6964 94.122 30.7603 94.5515 30.7167C94.9809 30.6731 95.3928 30.5232 95.7498 30.2805C96.3298 29.9305 96.8699 29.5205 97.4398 29.1605C97.6216 29.0914 97.809 29.0379 97.9998 29.0005V15.8105Z" fill="#E5B378"/>
<path d="M69.3596 0C68.9996 0.64 68.4496 1.54 67.9996 2.16C67.6161 2.66086 67.4082 3.27414 67.4082 3.905C67.4082 4.53586 67.6161 5.14914 67.9996 5.65C69.8596 8.35 71.5696 11.16 73.1896 14.03C73.5496 14.67 73.8796 15.33 74.1896 16.03C74.6332 15.4362 74.9126 14.7361 74.9996 14C75.3063 12.7222 75.2439 11.3837 74.8196 10.14C75.5668 9.87968 76.1999 9.3669 76.6096 8.69C76.1578 8.63221 75.7102 8.54537 75.2696 8.43C74.7808 8.30013 74.3377 8.03701 73.9896 7.67C74.3967 7.3364 74.72 6.9121 74.9336 6.43108C75.1472 5.95006 75.2452 5.42569 75.2196 4.9C75.2196 4.62 75.1496 4.49 74.8296 4.5C74.2367 4.55564 73.6429 4.40365 73.1496 4.07C72.6196 3.71 72.6496 3.26 73.2296 3C74.1675 2.56461 75.1967 2.3622 76.2296 2.41C76.8889 2.47282 77.5393 2.60693 78.1696 2.81C78.5971 2.93489 79.0455 2.97195 79.4877 2.91895C79.9299 2.86595 80.3568 2.72399 80.7427 2.50162C81.1286 2.27925 81.4654 1.98106 81.733 1.62504C82.0006 1.26901 82.1933 0.862499 82.2996 0.43C82.2996 0.36 82.1896 0.07 82.1896 0H69.3596Z" fill="#E5B378"/>
<path d="M65.66 27.1107C64.5034 26.4487 63.1926 26.1037 61.86 26.1107C60.9828 26.1964 60.1304 26.4511 59.35 26.8607C58.9096 27.0844 58.4208 27.1958 57.927 27.1852C57.4332 27.1746 56.9497 27.0422 56.5194 26.7998C56.089 26.5574 55.7252 26.2125 55.4601 25.7958C55.1951 25.379 55.037 24.9032 55 24.4107C54.9649 24.0349 54.9649 23.6566 55 23.2807C55.0105 23.2341 55.0103 23.1857 54.9996 23.1391C54.989 23.0926 54.968 23.049 54.9383 23.0116C54.9085 22.9742 54.8708 22.9439 54.8278 22.923C54.7849 22.9021 54.7378 22.891 54.69 22.8907C54.4905 22.8707 54.2895 22.8707 54.09 22.8907C53.6531 22.9013 53.2188 22.8209 52.8146 22.6545C52.4105 22.4882 52.0454 22.2396 51.7426 21.9245C51.4397 21.6094 51.2057 21.2348 51.0555 20.8244C50.9053 20.414 50.8421 19.9768 50.87 19.5407C50.9834 18.8523 51.1816 18.1805 51.46 17.5407C51.7474 16.8484 51.9295 16.117 52 15.3707C52.0879 14.3464 51.831 13.3222 51.27 12.4607L50.75 11.7207H51.18C51.6181 11.8384 52.0489 11.982 52.47 12.1507C53.2447 12.4776 53.9351 12.9758 54.4894 13.608C55.0436 14.2403 55.4473 14.99 55.67 15.8007C55.7963 16.3268 55.8832 16.8617 55.93 17.4007C55.99 18.0007 56.23 18.1607 56.71 17.8807C56.8758 17.7902 57.036 17.6901 57.19 17.5807C57.4744 17.3722 57.8069 17.239 58.1566 17.1935C58.5063 17.148 58.8618 17.1918 59.19 17.3207C59.4056 17.4057 59.6401 17.431 59.8688 17.3941C60.0976 17.3571 60.3121 17.2592 60.49 17.1107C60.8596 16.8555 61.2436 16.6218 61.64 16.4107C61.9514 17.3966 62.0157 18.4439 61.8274 19.4605C61.6391 20.477 61.2039 21.4318 60.56 22.2407C60.71 22.2407 60.81 22.3007 60.92 22.3107C61.7899 22.4215 62.6215 22.7354 63.3476 23.227C64.0738 23.7186 64.6741 24.3742 65.1 25.1407C65.5113 25.6892 65.7134 26.3665 65.67 27.0507L65.66 27.1107Z" fill="#E5B378"/>
<path d="M53.6397 42.9093C53.0797 42.8293 52.8097 42.4093 52.5597 41.9593C52.4498 41.7438 52.385 41.5081 52.3692 41.2667C52.3535 41.0254 52.3871 40.7833 52.468 40.5553C52.5489 40.3273 52.6754 40.1183 52.8399 39.9408C53.0043 39.7634 53.2032 39.6214 53.4244 39.5234C53.6455 39.4254 53.8844 39.3735 54.1262 39.3709C54.3681 39.3683 54.608 39.415 54.8313 39.5082C55.0545 39.6014 55.2564 39.7391 55.4246 39.913C55.5928 40.0868 55.7238 40.2931 55.8097 40.5193C55.8546 40.63 55.9081 40.737 55.9697 40.8393C56.8397 40.1893 57.6997 39.5793 58.5197 38.9093C59.3397 38.2393 64.8297 32.8093 65.7197 32.0293L66.1696 32.4793C64.6896 34.1593 58.5597 40.3393 57.4697 42.2793C57.9266 42.4676 58.3142 42.7924 58.5797 43.2093C58.7924 43.603 58.8509 44.0619 58.7436 44.4963C58.6364 44.9308 58.3712 45.3098 57.9997 45.5593C57.8132 45.6867 57.6032 45.7757 57.3819 45.8211C57.1607 45.8665 56.9326 45.8673 56.7111 45.8236C56.4895 45.7798 56.2788 45.6923 56.0915 45.5663C55.9041 45.4402 55.7437 45.2781 55.6196 45.0893C55.5318 44.851 55.4316 44.6173 55.3197 44.3893C55.3662 44.8094 55.2729 45.2331 55.0541 45.5947C54.8353 45.9563 54.5033 46.2356 54.1097 46.3893C53.678 46.5447 53.2031 46.5274 52.7839 46.3411C52.3647 46.1548 52.0336 45.8138 51.8597 45.3893C51.7651 45.1737 51.7162 44.9408 51.7158 44.7054C51.7155 44.4699 51.7638 44.2369 51.8576 44.021C51.9515 43.8051 52.089 43.6109 52.2614 43.4506C52.4338 43.2902 52.6375 43.1673 52.8597 43.0893C53.0197 43.0293 53.4997 42.9893 53.6397 42.9093Z" fill="#E5B378"/>
<path d="M83.52 14.16C82.48 13.4414 81.6789 12.4279 81.22 11.25C80.9419 10.6212 80.8119 9.93697 80.84 9.25V9.12C81 9.19 81.15 9.27 81.31 9.33C82.1358 9.70597 83.0287 9.91211 83.9358 9.93616C84.8428 9.96021 85.7454 9.80168 86.59 9.47C87.676 9.06914 88.6309 8.37723 89.35 7.47C89.25 7.31 89.18 7.18 89.09 7.06C88.302 5.95049 87.6976 4.72146 87.3 3.42C86.98 2.42 86.75 1.06 86.53 0H87.93C88.0811 1.3673 88.4002 2.71076 88.88 4C89.2693 4.97047 89.7909 5.88245 90.43 6.71C90.54 6.56 90.62 6.45 90.69 6.34C91.561 5.00461 92.8111 3.95993 94.28 3.34C94.3968 3.27794 94.5301 3.25421 94.6611 3.27215C94.7922 3.2901 94.9142 3.34882 95.01 3.44C95.1041 3.52499 95.1678 3.63847 95.1913 3.76309C95.2148 3.88771 95.1967 4.01659 95.14 4.13C94.8391 5.10574 94.3385 6.0082 93.67 6.78C93.21 7.29 92.67 7.78 92.2 8.26C92.2831 8.33851 92.3735 8.40883 92.47 8.47C93.4095 9.01914 94.4185 9.43956 95.47 9.72C96.3121 9.89031 97.1636 10.0105 98.02 10.08V11.39C97.2295 11.4049 96.4412 11.3038 95.68 11.09C94.2218 10.7511 92.8252 10.1878 91.54 9.42C90.4006 10.4995 89.6763 11.9448 89.4935 13.5037C89.3108 15.0626 89.6811 16.6362 90.54 17.95C89.54 18.37 86.89 17.75 85.35 15.8C85.1793 16.5803 84.828 17.3097 84.3244 17.9297C83.8207 18.5497 83.1788 19.043 82.45 19.37C81.7097 19.711 80.889 19.8391 80.08 19.74C79.8823 18.6322 80.0728 17.49 80.6194 16.5063C81.1659 15.5226 82.035 14.7575 83.08 14.34C83.196 14.276 83.3063 14.2024 83.41 14.12" fill="#E5B378"/>
<path d="M87.9297 0C88.0808 1.3673 88.3999 2.71076 88.8797 4C89.2689 4.97047 89.7906 5.88245 90.4297 6.71C90.5397 6.56 90.6197 6.45 90.6897 6.34C91.5607 5.00461 92.8108 3.95993 94.2797 3.34C94.3965 3.27794 94.5298 3.25421 94.6608 3.27215C94.7918 3.2901 94.9139 3.34882 95.0097 3.44C95.1038 3.52499 95.1675 3.63847 95.191 3.76309C95.2144 3.88771 95.1964 4.01659 95.1397 4.13C94.8388 5.10574 94.3382 6.0082 93.6697 6.78C93.2097 7.29 92.6697 7.78 92.1997 8.26C92.2827 8.33851 92.3732 8.40883 92.4697 8.47C93.4092 9.01914 94.4182 9.43956 95.4697 9.72C96.3118 9.89031 97.1633 10.0105 98.0197 10.08V0H87.9297Z" fill="#4B8081"/>
<path d="M90.1804 49.0907C90.1304 48.3807 90.1204 47.5707 90.0404 46.8707C89.8212 44.7322 89.2819 42.6388 88.4404 40.6607C86.8445 36.8759 84.2096 33.6203 80.8404 31.2707C78.5094 29.6148 75.8603 28.4604 73.0604 27.8807L70.7304 27.4307C70.5704 26.5807 70.4204 25.7107 70.2404 24.8407C69.7751 22.6817 68.9575 20.6141 67.8204 18.7207C65.7716 15.2195 62.777 12.367 59.1804 10.4907C57.345 9.51975 55.3775 8.82238 53.3404 8.42071C51.963 8.12949 50.5581 7.98866 49.1504 8.00071V8.95071C50.4391 9.00316 51.7243 9.12333 53.0004 9.31071C55.974 9.88796 58.7859 11.1068 61.2401 12.8822C63.6943 14.6577 65.7317 16.9471 67.2104 19.5907C67.978 20.9854 68.5788 22.4656 69.0004 24.0007C69.3857 25.3042 69.6304 26.6452 69.7304 28.0007C69.7304 28.2907 69.8104 28.4507 70.1604 28.4907C71.047 28.571 71.9284 28.7012 72.8004 28.8807C74.7038 29.2819 76.5393 29.9555 78.2504 30.8807C80.603 32.1532 82.6878 33.8679 84.3904 35.9307C85.7702 37.5847 86.8774 39.4481 87.6704 41.4507C88.3293 43.0504 88.7667 44.7326 88.9704 46.4507C89.0504 47.3107 89.1104 48.2607 89.1804 49.1107L90.1804 49.0907Z" fill="#E5B378"/>
<path d="M98.0004 48.8906H49.1504V97.9806H98.0004V48.8906Z" fill="#824B47"/>
<path d="M49.1601 94.3396C50.5601 94.3396 51.5401 94.3396 52.4101 94.1996C54.3562 93.9656 56.2709 93.5197 58.1201 92.8696C63.8438 90.8561 68.6505 86.8481 71.6601 81.5796C72.8997 79.4324 73.8257 77.119 74.4101 74.7096C74.4225 74.5988 74.4715 74.4954 74.5494 74.4156C74.6273 74.3359 74.7297 74.2845 74.8401 74.2696C75.4401 74.1296 76.0401 73.9796 76.6201 73.7896C78.5227 73.1707 80.3506 72.3423 82.0701 71.3196C84.4456 69.9008 86.5735 68.1039 88.3701 65.9996C90.0897 63.9875 91.4802 61.7161 92.4901 59.2696C93.2824 57.4227 93.8271 55.4792 94.1101 53.4896C94.3001 52.1896 94.3601 50.8596 94.4701 48.9496L89.7101 48.8496C89.7101 48.8496 89.5201 67.9996 70.4101 70.1896C70.4101 70.1896 68.7801 88.6796 49.1201 89.5696L49.1601 94.3396Z" fill="#824B47"/>
<path d="M49.1797 89.0009C50.4578 88.9565 51.7329 88.8463 52.9997 88.6709C55.9804 88.099 58.8002 86.8827 61.2617 85.1069C63.7231 83.3312 65.7668 81.0391 67.2497 78.3909C68.0314 77.0052 68.6458 75.5315 69.0797 74.0009C69.462 72.6971 69.7034 71.3561 69.7997 70.0009C69.7997 69.7109 69.8897 69.5509 70.2397 69.5109C71.1229 69.4347 72.001 69.3078 72.8697 69.1309C77.4144 68.1354 81.4948 65.6463 84.4597 62.0609C85.8419 60.4068 86.9524 58.5436 87.7497 56.5409C88.4079 54.9415 88.842 53.259 89.0397 51.5409C89.1297 50.6909 89.1897 49.7409 89.2597 48.8809H49.1797V89.0009Z" fill="#4B8081"/>
<path d="M49.1797 94.77L50.8797 94.69C52.919 94.5859 54.9361 94.2161 56.8797 93.59C59.1247 92.888 61.2617 91.8784 63.2297 90.59C65.1946 89.3439 66.9867 87.8444 68.5597 86.13C70.3343 84.2206 71.8292 82.0692 72.9997 79.74C73.7454 78.1959 74.335 76.5813 74.7597 74.92C74.7747 74.8268 74.8168 74.7401 74.8809 74.6707C74.9449 74.6013 75.028 74.5524 75.1197 74.53C77.442 73.9545 79.6686 73.045 81.7297 71.83C84.3902 70.288 86.7595 68.2911 88.7297 65.93C91.0683 63.1259 92.8074 59.8723 93.8397 56.37C94.5304 53.973 94.897 51.4943 94.9297 49H93.9997C93.8797 50.31 93.8197 51.64 93.6397 52.95C93.3432 54.9358 92.7919 56.8751 91.9997 58.72C90.9909 61.1618 89.6039 63.4296 87.8897 65.44C86.0895 67.5556 83.9586 69.3657 81.5797 70.8C79.8588 71.8174 78.0311 72.6424 76.1297 73.26C75.5483 73.4504 74.9576 73.6106 74.3597 73.74C74.2487 73.7561 74.1459 73.8076 74.0666 73.8869C73.9873 73.9662 73.9358 74.069 73.9197 74.18C73.3405 76.5895 72.4177 78.9032 71.1797 81.05C68.159 86.3153 63.3519 90.3242 57.6297 92.35C55.7784 92.9929 53.8645 93.4387 51.9197 93.68C51.0497 93.79 50.0697 93.77 49.1897 93.81L49.1797 94.77Z" fill="#E5B378"/>
<path d="M86.4102 50.6405C86.2689 51.9797 85.6489 53.223 84.6641 54.1416C83.6793 55.0603 82.3961 55.5925 81.0502 55.6405C80.9802 55.6405 80.9102 55.6405 80.8402 55.6405C80.5802 55.6405 80.2402 55.5805 80.1702 55.8605C80.1598 56.1247 80.245 56.3839 80.4102 56.5905C80.6979 56.9299 80.8842 57.3434 80.9479 57.7838C81.0115 58.2241 80.95 58.6735 80.7702 59.0805C80.6903 59.275 80.6695 59.4888 80.7104 59.6951C80.7513 59.9014 80.8521 60.0911 81.0002 60.2405C81.2643 60.5895 81.508 60.9534 81.7302 61.3305C80.8115 61.6764 79.816 61.7662 78.8502 61.5905C77.8128 61.4296 76.8327 61.01 76.0002 60.3705C75.9392 60.4631 75.892 60.5642 75.8602 60.6705C75.7027 61.8172 75.2045 62.8901 74.4302 63.7505C73.5926 64.685 72.4659 65.3118 71.2302 65.5305C71.1377 65.548 71.0427 65.548 70.9502 65.5305C71.1302 65.1805 71.3202 64.8405 71.4902 64.5305C71.8876 63.757 72.0949 62.9 72.0949 62.0305C72.0949 61.1609 71.8876 60.3039 71.4902 59.5305C71.0707 58.7579 70.9328 57.8635 71.1002 57.0005C71.2486 56.4199 71.56 55.8939 71.9976 55.4845C72.4353 55.0752 72.981 54.7997 73.5702 54.6905C73.7257 54.6646 73.8827 54.6479 74.0402 54.6405C74.0402 54.6405 75.7102 55.0605 75.2202 54.2605C75.2615 54.0897 75.2882 53.9157 75.3002 53.7405C75.3158 53.299 75.4217 52.8654 75.6115 52.4666C75.8013 52.0677 76.0709 51.712 76.4036 51.4214C76.7364 51.1309 77.1252 50.9117 77.546 50.7773C77.9668 50.643 78.4107 50.5964 78.8502 50.6405C79.609 50.7693 80.3483 50.9945 81.0502 51.3105C81.9307 51.7329 82.9182 51.8796 83.8835 51.7315C84.8487 51.5834 85.7468 51.1474 86.4602 50.4805L86.4102 50.6405Z" fill="#E5B378"/>
<path d="M74.6999 54.7208C74.9399 54.7208 75.1199 54.7708 75.2499 54.5808C75.2744 54.5364 75.2872 54.4865 75.2872 54.4358C75.2872 54.3851 75.2744 54.3352 75.2499 54.2908C74.203 53.1681 72.9414 52.2669 71.5399 51.6408C69.9821 51.0068 68.2792 50.8164 66.6199 51.0908C65.5818 51.3328 64.6575 51.922 63.9999 52.7608C63.1046 53.8131 62.6308 55.1597 62.6699 56.5408C62.5961 58.9098 63.1115 61.26 64.1699 63.3808C63.9899 63.5608 63.8099 63.7308 63.6199 63.9308C62.1745 63.197 60.6101 62.7263 58.9999 62.5408C57.4814 62.2824 55.9229 62.3991 54.4599 62.8808C53.3952 63.3347 52.4999 64.1111 51.8999 65.1008C51.2462 66.2895 51.0404 67.6732 51.3199 69.0008C51.5659 71.0553 52.5123 72.9624 53.9999 74.4008C54.1899 74.6108 54.3699 74.8308 54.5599 75.0508C55.3499 75.3108 54.9299 74.0508 54.9299 74.0508C54.0545 73.3874 53.3655 72.509 52.9299 71.5008C52.2651 70.0996 51.9921 68.5446 52.1399 67.0008C52.1748 66.613 52.2763 66.2341 52.4399 65.8808C52.7087 65.3718 53.0963 64.9352 53.5698 64.6079C54.0433 64.2807 54.5887 64.0724 55.1599 64.0008C56.2279 63.7975 57.3213 63.7637 58.3999 63.9008C61.2855 64.1272 64.0388 65.2062 66.3099 67.0008C66.9199 67.4808 67.4899 68.0008 67.9999 68.4508C68.2599 68.2408 68.5199 68.0508 68.7699 67.8608C68.3499 67.3808 67.9499 66.9608 67.5699 66.5108C66.2991 65.0585 65.3484 63.3549 64.7799 61.5108C64.194 59.7227 63.963 57.8374 64.0999 55.9608C64.1508 54.9955 64.4394 54.0577 64.9399 53.2308C65.263 52.7638 65.7049 52.3916 66.22 52.1525C66.7351 51.9134 67.3046 51.8161 67.8699 51.8708C69.4658 51.8333 71.0386 52.2569 72.3999 53.0908C73.0851 53.445 73.6802 53.9513 74.1399 54.5708C74.3145 54.6614 74.5043 54.719 74.6999 54.7408" fill="#E5B378"/>
<path d="M97.9998 82.169C97.1767 82.0496 96.4306 81.619 95.9153 80.9661C95.4 80.3131 95.1547 79.4874 95.2299 78.659C95.3799 77.829 95.5798 77.009 95.6998 76.179C95.8279 75.0196 95.5827 73.8495 94.9998 72.839C94.9569 72.7642 94.895 72.7021 94.8204 72.6589C94.7458 72.6156 94.6611 72.5929 94.5748 72.5929C94.4886 72.5929 94.4039 72.6156 94.3293 72.6589C94.2547 72.7021 94.1928 72.7642 94.1498 72.839C93.7176 73.4717 93.5228 74.2367 93.5998 74.999C93.0182 75.108 92.4177 75.0535 91.8651 74.8416C91.3126 74.6298 90.8296 74.2689 90.4698 73.799C89.9336 74.4001 89.6164 75.1649 89.5698 75.969C89.533 76.1317 89.4863 76.292 89.4298 76.449C88.8685 76.1041 88.4362 75.584 88.1998 74.969C88.0798 74.659 87.9599 74.669 87.6599 74.739C85.9442 75.1867 84.1259 75.0205 82.5198 74.269C82.5198 74.269 82.4398 74.189 82.3398 74.099L83.3398 73.539C86.3398 71.919 89.1498 70.149 91.9498 68.279C92.3703 67.9678 92.8189 67.6966 93.2898 67.469C93.6884 67.3032 94.122 67.2392 94.5515 67.2829C94.9809 67.3265 95.3928 67.4764 95.7498 67.719C96.3298 68.069 96.8699 68.479 97.4398 68.839C97.6203 68.9122 97.808 68.9659 97.9998 68.999V82.169Z" fill="#E5B378"/>
<path d="M69.3601 98.0007C68.9701 97.3607 68.4501 96.4607 68.0401 95.8407C67.6557 95.3421 67.4473 94.7303 67.4473 94.1007C67.4473 93.4711 67.6557 92.8593 68.0401 92.3607C69.9001 89.6507 71.6101 86.8407 73.2301 83.9707C73.5901 83.3307 73.9201 82.6707 74.2301 81.9707C74.6594 82.5686 74.9248 83.2685 75.0001 84.0007C75.3067 85.2785 75.2443 86.617 74.8201 87.8607C75.5673 88.121 76.2003 88.6338 76.6101 89.3107C76.1583 89.3685 75.7107 89.4553 75.2701 89.5707C74.7812 89.7006 74.3381 89.9637 73.9901 90.3307C74.4029 90.6577 74.7337 91.0766 74.9559 91.5541C75.1781 92.0315 75.2857 92.5543 75.2701 93.0807C75.2701 93.3607 75.2001 93.5007 74.8801 93.4807C74.2872 93.4251 73.6933 93.5771 73.2001 93.9107C72.6701 94.2707 72.7001 94.7307 73.2801 94.9807C74.218 95.4161 75.2472 95.6185 76.2801 95.5707C76.9393 95.5079 77.5898 95.3738 78.2201 95.1707C78.6456 95.0504 79.091 95.017 79.5298 95.0722C79.9685 95.1275 80.3917 95.2703 80.7741 95.4924C81.1566 95.7144 81.4905 96.011 81.7561 96.3646C82.0217 96.7182 82.2135 97.1215 82.3201 97.5507C82.3201 97.6207 82.2101 97.9107 82.2101 97.9807L69.3601 98.0007Z" fill="#E5B378"/>
<path d="M65.66 70.8701C64.5034 71.5321 63.1926 71.8771 61.86 71.8701C60.9828 71.7844 60.1304 71.5297 59.35 71.1201C58.9096 70.8965 58.4208 70.785 57.927 70.7956C57.4332 70.8062 56.9497 70.9386 56.5194 71.181C56.089 71.4234 55.7252 71.7683 55.4601 72.185C55.1951 72.6018 55.037 73.0776 55 73.5701C54.9649 73.946 54.9649 74.3243 55 74.7001C55.0105 74.7467 55.0103 74.7951 54.9996 74.8417C54.989 74.8882 54.968 74.9318 54.9383 74.9692C54.9085 75.0066 54.8708 75.0369 54.8278 75.0578C54.7849 75.0787 54.7378 75.0898 54.69 75.0901C54.4905 75.1102 54.2895 75.1102 54.09 75.0901C53.6531 75.0795 53.2188 75.1599 52.8146 75.3263C52.4105 75.4926 52.0454 75.7412 51.7426 76.0563C51.4397 76.3714 51.2057 76.746 51.0555 77.1564C50.9053 77.5668 50.8421 78.004 50.87 78.4401C50.9834 79.1286 51.1816 79.8003 51.46 80.4401C51.7462 81.1328 51.9281 81.8641 52 82.6101C52.0879 83.6344 51.831 84.6586 51.27 85.5201L50.75 86.2601H51.18C51.6195 86.1469 52.0505 86.0033 52.47 85.8301C53.2447 85.5033 53.9351 85.005 54.4894 84.3728C55.0436 83.7405 55.4473 82.9909 55.67 82.1801C55.7971 81.6541 55.884 81.1193 55.93 80.5801C55.99 79.9801 56.23 79.8201 56.71 80.1001C56.88 80.1901 57.03 80.3001 57.19 80.4001C57.4731 80.6113 57.8058 80.7461 58.156 80.7916C58.5062 80.8371 58.8623 80.7919 59.19 80.6601C59.4056 80.5751 59.6401 80.5498 59.8688 80.5867C60.0976 80.6237 60.3121 80.7216 60.49 80.8701C60.8596 81.1253 61.2436 81.359 61.64 81.5701C61.9514 80.5842 62.0157 79.5369 61.8274 78.5204C61.6391 77.5038 61.2039 76.549 60.56 75.7401C60.71 75.7401 60.81 75.6801 60.92 75.6701C61.7899 75.5593 62.6215 75.2454 63.3476 74.7538C64.0738 74.2622 64.6741 73.6066 65.1 72.8401C65.5113 72.2916 65.7134 71.6143 65.67 70.9301L65.66 70.8701Z" fill="#E5B378"/>
<path d="M53.6405 55.0696C53.0805 55.1496 52.8105 55.5696 52.5605 56.0696C52.4506 56.2851 52.3858 56.5207 52.37 56.7621C52.3543 57.0035 52.3879 57.2456 52.4688 57.4736C52.5497 57.7015 52.6763 57.9106 52.8407 58.088C53.0051 58.2655 53.204 58.4075 53.4252 58.5055C53.6463 58.6035 53.8852 58.6554 54.127 58.658C54.3689 58.6606 54.6088 58.6139 54.8321 58.5207C55.0553 58.4275 55.2572 58.2897 55.4254 58.1159C55.5936 57.9421 55.7246 57.7357 55.8105 57.5096C55.8574 57.3998 55.9108 57.293 55.9705 57.1896C56.8405 57.8396 57.7005 58.4496 58.5205 59.1196C59.3405 59.7896 64.6004 64.9996 65.5204 65.7796L65.9705 65.3196C64.5005 63.6496 58.5905 57.6896 57.5005 55.7496C57.9574 55.5613 58.345 55.2365 58.6105 54.8196C58.8352 54.4175 58.8972 53.9445 58.7837 53.498C58.6703 53.0515 58.3899 52.6656 58.0005 52.4196C57.814 52.2921 57.604 52.2031 57.3827 52.1578C57.1615 52.1124 56.9334 52.1115 56.7119 52.1553C56.4903 52.1991 56.2796 52.2865 56.0923 52.4126C55.9049 52.5387 55.7445 52.7008 55.6205 52.8896C55.5326 53.1279 55.4324 53.3616 55.3205 53.5896C55.3653 53.1698 55.2712 52.7468 55.0527 52.3856C54.8341 52.0243 54.5031 51.7447 54.1105 51.5896C53.6788 51.4342 53.2039 51.4515 52.7847 51.6378C52.3655 51.8241 52.0344 52.1651 51.8605 52.5896C51.7673 52.8061 51.7194 53.0394 51.7197 53.2751C51.72 53.5108 51.7685 53.744 51.8621 53.9603C51.9557 54.1766 52.0926 54.3715 52.2643 54.533C52.436 54.6946 52.6388 54.8193 52.8605 54.8996C53.1238 54.9398 53.3843 54.9966 53.6405 55.0696Z" fill="#E5B378"/>
<path d="M83.5195 83.8294C82.4802 84.5444 81.6791 85.5545 81.2195 86.7294C80.9414 87.3581 80.8114 88.0424 80.8395 88.7294V88.8193L81.3095 88.6094C82.1353 88.2334 83.0283 88.0272 83.9353 88.0032C84.8424 87.9791 85.745 88.1377 86.5895 88.4694C87.6736 88.8738 88.6276 89.5651 89.3495 90.4694C89.2495 90.6294 89.1795 90.7593 89.0895 90.8793C88.3044 91.9797 87.7001 93.1984 87.2995 94.4893C86.9795 95.4893 86.7495 96.8494 86.5295 97.9094H87.9295C88.0806 96.5421 88.3997 95.1986 88.8795 93.9094C89.2688 92.9389 89.7904 92.0269 90.4295 91.1993C90.5395 91.3493 90.6195 91.4593 90.6895 91.5693C91.5605 92.9047 92.8107 93.9494 94.2795 94.5693C94.3963 94.6314 94.5296 94.6551 94.6607 94.6372C94.7917 94.6192 94.9137 94.5605 95.0095 94.4694C95.1037 94.3844 95.1673 94.2709 95.1908 94.1463C95.2143 94.0216 95.1963 93.8928 95.1395 93.7793C94.8387 92.8036 94.338 91.9011 93.6695 91.1293C93.2095 90.6193 92.6695 90.1294 92.1995 89.6494C92.2826 89.5708 92.373 89.5005 92.4695 89.4394C93.4094 88.8934 94.4185 88.4763 95.4695 88.1993C96.3065 88.0534 97.1513 87.9565 97.9995 87.9094V86.6094C97.2085 86.5844 96.4186 86.6857 95.6595 86.9094C94.2005 87.2403 92.8031 87.8006 91.5195 88.5693C90.3791 87.4926 89.654 86.0488 89.4712 84.4911C89.2883 82.9333 89.6595 81.3609 90.5195 80.0494C89.5195 79.6194 86.8695 80.2394 85.3295 82.1894C85.1588 81.409 84.8075 80.6796 84.3039 80.0596C83.8003 79.4396 83.1583 78.9464 82.4295 78.6194C81.6892 78.2784 80.8686 78.1503 80.0595 78.2493C79.8632 79.3584 80.0542 80.5012 80.6004 81.4862C81.1466 82.4712 82.0148 83.2385 83.0595 83.6594C83.1774 83.7162 83.2881 83.7867 83.3895 83.8694" fill="#E5B378"/>
<path d="M87.9297 98.0002C88.0808 96.6329 88.3999 95.2894 88.8797 94.0002C89.2689 93.0297 89.7906 92.1177 90.4297 91.2902C90.5397 91.4402 90.6197 91.5502 90.6897 91.6602C91.5607 92.9955 92.8108 94.0402 94.2797 94.6602C94.3965 94.7222 94.5298 94.7459 94.6608 94.728C94.7918 94.71 94.9139 94.6513 95.0097 94.5602C95.1038 94.4752 95.1675 94.3617 95.191 94.2371C95.2144 94.1124 95.1964 93.9836 95.1397 93.8702C94.8388 92.8944 94.3382 91.992 93.6697 91.2202C93.2097 90.7102 92.6697 90.2202 92.1997 89.7402C92.2827 89.6616 92.3732 89.5913 92.4697 89.5302C93.4096 88.9842 94.4186 88.5671 95.4697 88.2902C96.3057 88.1188 97.1502 87.9919 97.9997 87.9102V98.0002H87.9297Z" fill="#4B8081"/>
<path d="M90.1804 48.8906C90.1304 49.6006 90.1204 50.4106 90.0404 51.1106C89.7171 54.219 88.728 57.2213 87.1405 59.9132C85.5529 62.6052 83.4042 64.9235 80.8404 66.7106C78.5094 68.3666 75.8603 69.5209 73.0604 70.1006L70.7304 70.5506C70.5704 71.4006 70.4204 72.2706 70.2404 73.1406C69.7751 75.2996 68.9575 77.3673 67.8204 79.2606C65.7716 82.7618 62.777 85.6143 59.1804 87.4906C57.345 88.4616 55.3775 89.159 53.3404 89.5606C51.9634 89.8552 50.5585 89.9994 49.1504 89.9906V89.0006C50.4386 88.9581 51.7237 88.848 53.0004 88.6706C55.974 88.0934 58.7859 86.8745 61.2401 85.0991C63.6943 83.3236 65.7317 81.0343 67.2104 78.3906C67.9783 77.0031 68.5792 75.5295 69.0004 74.0006C69.3857 72.6971 69.6304 71.3562 69.7304 70.0006C69.7304 69.7106 69.8104 69.5506 70.1604 69.5206C71.0464 69.4355 71.9276 69.3053 72.8004 69.1306C76.1199 68.4148 79.2138 66.8979 81.8127 64.7122C84.4115 62.5265 86.4362 59.7383 87.7104 56.5906C88.3672 54.9902 88.8045 53.3083 89.0104 51.5906C89.0904 50.7306 89.1504 49.7906 89.2204 48.9306L90.1804 48.8906Z" fill="#E5B378"/>
<path d="M49.1596 48.8906H0.30957V97.9806H49.1596V48.8906Z" fill="#824B47"/>
<path d="M49.1501 94.3403C47.7501 94.3403 46.7701 94.3403 45.9001 94.2003C43.954 93.9663 42.0393 93.5204 40.1901 92.8703C34.4654 90.8541 29.6563 86.8471 26.6401 81.5803C25.404 79.4326 24.4814 77.1192 23.9001 74.7103C23.8872 74.598 23.8368 74.4934 23.7569 74.4135C23.677 74.3336 23.5723 74.2831 23.4601 74.2703C22.8701 74.1303 22.2701 73.9803 21.6901 73.7903C19.7867 73.1735 17.9586 72.3449 16.2401 71.3203C11.5669 68.5085 7.91566 64.2755 5.82008 59.2403C5.02916 57.3922 4.48125 55.4493 4.19008 53.4603C4.00008 52.1603 4.00008 50.8303 3.83008 48.9203L8.59008 48.8203C8.59008 48.8203 8.79008 68.0003 27.9001 70.1903C27.9001 70.1903 29.5301 88.6803 49.1801 89.5703L49.1501 94.3403Z" fill="#824B47"/>
<path d="M49.1198 88.9997C47.8342 88.9436 46.5525 88.8201 45.2798 88.6297C42.308 88.0583 39.4964 86.8462 37.0406 85.0777C34.5849 83.3093 32.5439 81.027 31.0598 78.3897C30.278 77.004 29.6637 75.5303 29.2298 73.9997C28.8445 72.6962 28.5998 71.3552 28.4998 69.9997C28.4998 69.7097 28.4198 69.5497 28.0698 69.5097C27.1834 69.4328 26.302 69.3059 25.4298 69.1297C22.1176 68.408 19.0317 66.8884 16.4403 64.703C13.8489 62.5176 11.8302 59.7325 10.5598 56.5897C9.90296 54.9893 9.46567 53.3074 9.2598 51.5897C9.1798 50.7397 9.1198 49.7897 9.0498 48.9297H49.1198V88.9997Z" fill="#4B8081"/>
<path d="M49.12 94.77L47.43 94.69C45.3907 94.5859 43.3736 94.2161 41.43 93.59C39.1818 92.888 37.0415 91.8785 35.07 90.59C33.1101 89.3412 31.3217 87.8419 29.75 86.13C27.9997 84.2001 26.5317 82.0319 25.39 79.69C24.6443 78.1459 24.0547 76.5313 23.63 74.87C23.615 74.7768 23.5728 74.6901 23.5088 74.6207C23.4448 74.5514 23.3617 74.5024 23.27 74.48C20.9471 73.9063 18.7203 72.9967 16.66 71.78C13.9995 70.238 11.6302 68.2411 9.66 65.88C7.32137 63.0759 5.58226 59.8223 4.55 56.32C3.83661 53.9428 3.44315 51.4811 3.38 49H4.38C4.49 50.31 4.55 51.64 4.74 52.95C5.03249 54.9388 5.58035 56.8815 6.37 58.73C7.37882 61.1718 8.7658 63.4396 10.48 65.45C12.2789 67.563 14.4061 69.3728 16.78 70.81C18.5019 71.8256 20.3293 72.6505 22.23 73.27C22.8147 73.4603 23.4089 73.6205 24.01 73.75C24.1205 73.7649 24.2228 73.8163 24.3007 73.896C24.3786 73.9758 24.4276 74.0792 24.44 74.19C25.027 76.5986 25.9529 78.9116 27.19 81.06C30.2102 86.3218 35.0128 90.3298 40.73 92.36C42.5819 93.0007 44.4956 93.4464 46.44 93.69C47.31 93.8 48.29 93.78 49.17 93.82L49.12 94.77Z" fill="#E5B378"/>
<path d="M11.8896 50.6405C11.9429 51.0642 12.0333 51.4825 12.1596 51.8905C12.5448 52.9505 13.2321 53.8745 14.1368 54.5481C15.0414 55.2217 16.1236 55.6153 17.2496 55.6805C17.3296 55.6805 17.3996 55.6805 17.4696 55.6805C17.7196 55.6805 18.0696 55.6205 18.1396 55.9005C18.1454 56.1657 18.0568 56.4244 17.8896 56.6305C17.6036 56.9709 17.4191 57.3849 17.3572 57.8252C17.2953 58.2655 17.3585 58.7144 17.5396 59.1205C17.6031 59.3044 17.6152 59.5021 17.5747 59.6924C17.5342 59.8827 17.4425 60.0584 17.3096 60.2005C17.0456 60.5495 16.8018 60.9134 16.5796 61.2905C17.4982 61.6369 18.4938 61.7267 19.4596 61.5505C20.4935 61.388 21.47 60.9685 22.2996 60.3305C22.3566 60.4253 22.4035 60.5259 22.4396 60.6305C22.5971 61.7772 23.0953 62.8501 23.8696 63.7105C24.7072 64.645 25.8339 65.2717 27.0696 65.4905C27.1621 65.508 27.2571 65.508 27.3496 65.4905C27.1696 65.1405 26.9796 64.8005 26.8096 64.4905C26.4122 63.717 26.2049 62.86 26.2049 61.9905C26.2049 61.1209 26.4122 60.2639 26.8096 59.4905C27.228 58.7321 27.3694 57.8517 27.2096 57.0005C27.0616 56.418 26.7491 55.8904 26.3093 55.4808C25.8695 55.0711 25.3211 54.7968 24.7296 54.6905C24.5775 54.6639 24.4239 54.6472 24.2696 54.6405C24.2696 54.6405 22.5996 55.0605 23.0896 54.2605C23.0483 54.0897 23.0216 53.9157 23.0096 53.7405C22.994 53.299 22.8881 52.8654 22.6983 52.4666C22.5085 52.0677 22.2389 51.712 21.9062 51.4214C21.5734 51.1309 21.1847 50.9117 20.7638 50.7773C20.343 50.643 19.8991 50.5964 19.4596 50.6405C18.7008 50.7693 17.9615 50.9945 17.2596 51.3105C16.3791 51.7329 15.3916 51.8796 14.4263 51.7315C13.4611 51.5834 12.563 51.1474 11.8496 50.4805L11.8896 50.6405Z" fill="#E5B378"/>
<path d="M23.6098 54.7208C23.3698 54.7208 23.1898 54.7708 23.0598 54.5808C23.0353 54.5364 23.0225 54.4865 23.0225 54.4358C23.0225 54.3851 23.0353 54.3352 23.0598 54.2908C24.1123 53.17 25.3767 52.2693 26.7798 51.6408C28.3376 51.0068 30.0405 50.8164 31.6998 51.0908C32.7478 51.3288 33.6829 51.9181 34.3498 52.7608C35.2409 53.8155 35.7141 55.1604 35.6798 56.5408C35.7486 58.9093 35.2335 61.2584 34.1798 63.3808L34.7298 63.9308C36.1783 63.1959 37.7461 62.7252 39.3598 62.5408C40.8783 62.2832 42.4367 62.3999 43.8998 62.8808C44.9633 63.3323 45.8561 64.1096 46.4498 65.1008C47.1029 66.2901 47.2985 67.6772 46.9998 69.0008C46.7743 71.0458 45.8486 72.95 44.3798 74.3908C44.1798 74.6008 44.0098 74.8208 43.8198 75.0408C43.0298 75.3008 43.4498 74.0408 43.4498 74.0408C44.3252 73.3774 45.0141 72.499 45.4498 71.4908C46.0888 70.0859 46.3375 68.5349 46.1698 67.0008C46.1362 66.6116 46.0311 66.2319 45.8598 65.8808C45.5939 65.3715 45.2084 64.9344 44.7364 64.6069C44.2644 64.2795 43.72 64.0715 43.1498 64.0008C42.0818 63.7975 40.9884 63.7637 39.9098 63.9008C37.0242 64.1272 34.2709 65.2062 31.9998 67.0008C31.3898 67.4808 30.8198 68.0008 30.3098 68.4508L29.5398 67.8608C29.9598 67.3808 30.3598 66.9608 30.7398 66.5108C32.007 65.056 32.9572 63.3531 33.5298 61.5108C34.1107 59.7216 34.3416 57.8373 34.2098 55.9608C34.1589 54.9955 33.8703 54.0577 33.3698 53.2308C33.046 52.7646 32.6039 52.3929 32.089 52.1539C31.5741 51.9149 31.0049 51.8172 30.4398 51.8708C28.8409 51.8342 27.2651 52.2577 25.8998 53.0908C25.217 53.4445 24.625 53.951 24.1698 54.5708C23.9952 54.6614 23.8054 54.719 23.6098 54.7408" fill="#E5B378"/>
<path d="M0.30957 82.1702C1.13306 82.0531 1.87961 81.6228 2.39375 80.9689C2.90788 80.3151 3.14996 79.4881 3.06957 78.6602C2.91957 77.8302 2.71957 77.0102 2.60957 76.1802C2.47845 75.0218 2.72016 73.8518 3.29957 72.8402C3.34249 72.7654 3.40439 72.7033 3.47901 72.6601C3.55363 72.6169 3.63834 72.5941 3.72457 72.5941C3.8108 72.5941 3.89551 72.6169 3.97013 72.6601C4.04476 72.7033 4.10665 72.7654 4.14957 72.8402C4.58531 73.4716 4.78367 74.2367 4.70957 75.0002C5.28978 75.1107 5.88933 75.0569 6.4406 74.8449C6.99187 74.6329 7.47294 74.2711 7.82957 73.8002C8.37285 74.3978 8.69415 75.1639 8.73957 75.9702C8.77638 76.1329 8.82313 76.2932 8.87957 76.4502C9.44097 76.1053 9.87321 75.5852 10.1096 74.9702C10.2296 74.6602 10.3496 74.6702 10.6396 74.7402C12.3553 75.188 14.1735 75.0217 15.7796 74.2702C15.8396 74.2702 15.8696 74.1902 15.9596 74.1002L14.9596 73.5402C11.9596 71.9202 9.14957 70.1502 6.35957 68.2802C5.93456 67.9511 5.47917 67.6631 4.99957 67.4202C4.60272 67.2544 4.17071 67.1904 3.74282 67.234C3.31493 67.2777 2.90474 67.4276 2.54957 67.6702C1.99957 68.0002 1.43957 68.4302 0.86957 68.7902C0.69119 68.8806 0.503389 68.951 0.30957 69.0002V82.1702Z" fill="#E5B378"/>
<path d="M29 98C29.39 97.36 29.91 96.46 30.32 95.84C30.7044 95.3414 30.9128 94.7296 30.9128 94.1C30.9128 93.4704 30.7044 92.8586 30.32 92.36C28.36 89.63 26.66 86.82 25 84C24.64 83.36 24.3 82.7 24 82C23.6216 82.6021 23.4014 83.2901 23.36 84C23.0501 85.2768 23.1091 86.6154 23.53 87.86C22.7844 88.1233 22.1523 88.6353 21.74 89.31C22.1952 89.3669 22.6462 89.4537 23.09 89.57C23.5788 89.6999 24.022 89.963 24.37 90.33C23.9572 90.657 23.6264 91.0759 23.4042 91.5534C23.182 92.0308 23.0744 92.5536 23.09 93.08C23.09 93.36 23.16 93.5 23.48 93.48C24.0729 93.4244 24.6667 93.5764 25.16 93.91C25.69 94.27 25.65 94.73 25.08 94.98C24.1421 95.4154 23.1129 95.6178 22.08 95.57C21.4208 95.5072 20.7703 95.3731 20.14 95.17C19.7119 95.045 19.2629 95.0079 18.82 95.0608C18.3771 95.1137 17.9495 95.2555 17.5628 95.4778C17.1762 95.7001 16.8384 95.9982 16.5698 96.3543C16.3013 96.7104 16.1074 97.1171 16 97.55C16 97.62 16.12 97.91 16.12 97.98L29 98Z" fill="#E5B378"/>
<path d="M32.6497 70.87C33.8057 71.5333 35.1169 71.8784 36.4497 71.87C37.3392 71.7956 38.2056 71.5476 38.9997 71.14C39.4404 70.9057 39.9326 70.7852 40.4318 70.7892C40.9309 70.7932 41.4211 70.9216 41.858 71.1629C42.295 71.4042 42.6648 71.7507 42.934 72.1711C43.2032 72.5914 43.3632 73.0722 43.3997 73.57C43.4298 73.9461 43.4298 74.3239 43.3997 74.7C43.3872 74.7468 43.3858 74.7959 43.3956 74.8433C43.4055 74.8907 43.4263 74.9352 43.4565 74.9731C43.4866 75.011 43.5252 75.0413 43.5692 75.0616C43.6132 75.0819 43.6613 75.0916 43.7097 75.09C43.9092 75.1101 44.1102 75.1101 44.3097 75.09C44.7466 75.0794 45.1809 75.1598 45.585 75.3262C45.9892 75.4925 46.3543 75.7411 46.6571 76.0562C46.96 76.3713 47.1939 76.7459 47.3442 77.1563C47.4944 77.5667 47.5576 78.0039 47.5297 78.44C47.4118 79.1274 47.2138 79.7987 46.9397 80.44C46.6576 81.1069 46.4724 81.8107 46.3897 82.53C46.2477 83.567 46.4628 84.6215 46.9997 85.52L47.5197 86.26H47.0897C46.6469 86.1469 46.2126 86.0032 45.7897 85.83C45.0173 85.5013 44.3292 85.0023 43.7768 84.3702C43.2244 83.7382 42.822 82.9895 42.5997 82.18C42.4677 81.655 42.3808 81.1198 42.3397 80.58C42.2697 79.98 42.0397 79.82 41.5497 80.1C41.3897 80.19 41.2297 80.3 41.0797 80.4C40.7966 80.6112 40.4639 80.746 40.1137 80.7915C39.7634 80.837 39.4074 80.7918 39.0797 80.66C38.8641 80.575 38.6296 80.5497 38.4009 80.5866C38.1721 80.6236 37.9575 80.7215 37.7797 80.87C37.4101 81.1252 37.0261 81.3589 36.6297 81.57C36.3183 80.5841 36.254 79.5368 36.4423 78.5203C36.6306 77.5037 37.0658 76.5489 37.7097 75.74L37.3497 75.67C36.4798 75.5592 35.6482 75.2453 34.922 74.7537C34.1959 74.2621 33.5956 73.6065 33.1697 72.84C32.7543 72.2935 32.5518 71.6147 32.5997 70.93L32.6497 70.87Z" fill="#E5B378"/>
<path d="M44.66 55.0699C45.23 55.1499 45.5 55.5699 45.75 56.0699C45.8599 56.2854 45.9247 56.521 45.9404 56.7624C45.9562 57.0038 45.9226 57.2459 45.8417 57.4739C45.7607 57.7018 45.6342 57.9109 45.4698 58.0884C45.3053 58.2658 45.1065 58.4078 44.8853 58.5058C44.6641 58.6038 44.4253 58.6557 44.1834 58.6583C43.9415 58.6609 43.7016 58.6142 43.4784 58.521C43.2552 58.4278 43.0533 58.2901 42.8851 58.1162C42.7168 57.9424 42.5858 57.7361 42.5 57.5099C42.4531 57.4001 42.3997 57.2933 42.34 57.1899C41.47 57.8399 40.6 58.4499 39.78 59.1199C38.96 59.7899 33.26 65.4499 32.37 66.2299L31.92 65.7699C33.39 64.0999 39.74 57.6899 40.83 55.7699C40.3774 55.5787 39.9938 55.2544 39.73 54.8399C39.5201 54.4427 39.4663 53.9814 39.5791 53.5466C39.692 53.1117 39.9634 52.7348 40.34 52.4899C40.5265 52.3625 40.7365 52.2734 40.9577 52.2281C41.1789 52.1827 41.407 52.1819 41.6286 52.2256C41.8502 52.2694 42.0608 52.3568 42.2482 52.4829C42.4356 52.609 42.596 52.7711 42.72 52.9599C42.8079 53.1982 42.908 53.4319 43.02 53.6599C42.9734 53.2398 43.0668 52.8161 43.2856 52.4545C43.5043 52.0929 43.8363 51.8136 44.23 51.6599C44.6616 51.5045 45.1366 51.5218 45.5558 51.7081C45.975 51.8944 46.3061 52.2354 46.48 52.6599C46.5746 52.8762 46.6237 53.1098 46.6241 53.3459C46.6246 53.582 46.5764 53.8158 46.4826 54.0325C46.3888 54.2492 46.2513 54.4442 46.0789 54.6055C45.9064 54.7668 45.7025 54.8908 45.48 54.9699C45.2171 55.0122 44.9567 55.0689 44.7 55.1399" fill="#E5B378"/>
<path d="M14.7902 83.8297C15.827 84.5475 16.6275 85.5567 17.0902 86.7297C17.3637 87.36 17.4935 88.0431 17.4702 88.7297V88.8197L17.0002 88.6497C16.1744 88.2738 15.2815 88.0676 14.3745 88.0436C13.4674 88.0195 12.5648 88.1781 11.7202 88.5097C10.6347 88.9115 9.68007 89.6033 8.96023 90.5097C9.06024 90.6697 9.13023 90.7997 9.21023 90.9197C9.99792 92.0294 10.6023 93.2584 11.0002 94.5597C11.3202 95.5597 11.5502 96.9197 11.7702 97.9797H10.3702C10.203 96.6103 9.86712 95.2668 9.37023 93.9797C8.97306 93.0131 8.45204 92.1022 7.82023 91.2697L7.55023 91.6397C6.68189 92.9736 5.43542 94.0181 3.97023 94.6397C3.85157 94.7012 3.71686 94.7245 3.58444 94.7066C3.45203 94.6887 3.32835 94.6304 3.23023 94.5397C3.14012 94.4521 3.07927 94.3388 3.056 94.2153C3.03274 94.0918 3.04818 93.9641 3.10023 93.8497C3.40858 92.8751 3.91214 91.9735 4.58023 91.1997C5.04023 90.6897 5.58024 90.1997 6.05023 89.7197C5.96719 89.6412 5.87677 89.5709 5.78023 89.5097C4.83999 88.9645 3.83104 88.5475 2.78023 88.2697C1.94178 88.0954 1.09357 87.9719 0.240234 87.8997V86.5997C1.02796 86.5742 1.81468 86.6755 2.57023 86.8997C4.03008 87.2283 5.42781 87.7887 6.71023 88.5597C7.85237 87.484 8.57872 86.0401 8.76162 84.4818C8.94452 82.9236 8.57224 81.3507 7.71023 80.0397C8.71023 79.6097 11.3602 80.2297 12.9002 82.1797C13.0707 81.4007 13.4207 80.6723 13.9224 80.0525C14.4242 79.4327 15.0638 78.9386 15.7902 78.6097C16.534 78.2685 17.3579 78.1404 18.1702 78.2397C18.3685 79.349 18.1783 80.4926 17.6319 81.478C17.0854 82.4634 16.2161 83.2304 15.1702 83.6497C15.0571 83.7094 14.9499 83.7797 14.8502 83.8597" fill="#E5B378"/>
<path d="M10.38 97.9999C10.2128 96.6305 9.87689 95.287 9.38 93.9999C8.98283 93.0333 8.46181 92.1223 7.83 91.2899L7.56 91.6599C6.69166 92.9938 5.44519 94.0383 3.98 94.6599C3.86133 94.7213 3.72662 94.7447 3.59421 94.7268C3.46179 94.7089 3.33811 94.6506 3.24 94.5599C3.14989 94.4723 3.08904 94.359 3.06577 94.2355C3.0425 94.112 3.05795 93.9843 3.11 93.8699C3.41834 92.8953 3.9219 91.9936 4.59 91.2199C5.05 90.7099 5.59 90.2199 6.06 89.7399C5.97695 89.6614 5.88653 89.5911 5.79 89.5299C4.84975 88.9847 3.84081 88.5677 2.79 88.2899C1.9507 88.1205 1.10277 87.9969 0.25 87.9199V97.9999H10.38Z" fill="#4B8081"/>
<path d="M8.12988 48.8909C8.12988 49.6009 8.18988 50.4109 8.26988 51.1109C8.58673 54.221 9.57308 57.2257 11.1612 59.9186C12.7493 62.6114 14.9014 64.9286 17.4699 66.7109C19.8008 68.3668 22.45 69.5211 25.2499 70.1009L27.5799 70.5509C27.7399 71.4009 27.8899 72.2709 28.0699 73.1409C28.5352 75.2999 29.3528 77.3675 30.4899 79.2609C32.5321 82.7637 35.5241 85.617 39.1199 87.4909C40.9688 88.4631 42.9497 89.1604 44.9999 89.5609C46.3769 89.8554 47.7818 89.9996 49.1899 89.9909V89.0009C47.9043 88.9447 46.6225 88.8212 45.3499 88.6309C42.3727 88.0635 39.5552 86.8532 37.094 85.0846C34.6328 83.316 32.5871 81.0316 31.0999 78.3909C30.3139 77.0072 29.6994 75.5331 29.2699 74.0009C28.8846 72.6974 28.6399 71.3564 28.5399 70.0009C28.5399 69.7109 28.4499 69.5509 28.1099 69.5209C27.2238 69.4364 26.3426 69.3063 25.4699 69.1309C20.9274 68.1296 16.8488 65.6416 13.8799 62.0609C12.5008 60.4064 11.3936 58.5431 10.5999 56.5409C9.94304 54.9404 9.50574 53.2585 9.29988 51.5409C9.21988 50.6809 9.15988 49.7409 9.08988 48.8809L8.12988 48.8909Z" fill="#E5B378"/>
<path d="M49.0596 0V97.99" stroke="#2A2523" stroke-width="0.19" stroke-miterlimit="10"/>
<path d="M97.9998 48.9902H0.299805" stroke="#2A2523" stroke-width="0.19" stroke-miterlimit="10"/>
<path d="M3.74 117.84C3.72606 118.208 3.76993 118.576 3.87 118.93C3.93695 119.16 4.06074 119.37 4.23 119.54C4.38946 119.684 4.58169 119.787 4.79 119.84C5.03553 119.906 5.28657 119.949 5.54 119.97H0C0.25026 119.95 0.498065 119.907 0.74 119.84C0.951282 119.787 1.14676 119.684 1.31 119.54C1.47926 119.37 1.60305 119.16 1.67 118.93C1.76517 118.575 1.80895 118.208 1.8 117.84V108.33C1.81861 108.033 1.81861 107.736 1.8 107.44C1.78981 107.253 1.72745 107.073 1.62 106.92C1.51989 106.789 1.37275 106.703 1.21 106.68C0.976214 106.634 0.738143 106.614 0.5 106.62L3.78 104.09L3.74 117.84Z" fill="#2A2523"/>
<path d="M20.4198 112.231C20.4477 113.437 20.2475 114.638 19.8298 115.771C19.4851 116.708 18.9583 117.568 18.2798 118.301C17.6536 118.956 16.8975 119.474 16.0598 119.821C15.2547 120.155 14.3917 120.329 13.5198 120.331C12.6358 120.333 11.7604 120.158 10.9459 119.814C10.1315 119.47 9.39473 118.966 8.77983 118.331C8.0983 117.596 7.56518 116.737 7.20983 115.801C6.42355 113.503 6.42355 111.009 7.20983 108.711C7.57006 107.779 8.1027 106.924 8.77983 106.191C9.39875 105.519 10.1562 104.99 10.9998 104.641C11.8018 104.308 12.6617 104.138 13.5298 104.141C14.4011 104.139 15.2642 104.309 16.0698 104.641C16.9114 104.98 17.669 105.499 18.2898 106.161C18.9639 106.893 19.4902 107.749 19.8398 108.681C20.2551 109.817 20.4519 111.021 20.4198 112.231ZM8.83983 112.231C8.8229 113.397 8.96077 114.561 9.24983 115.691C9.47408 116.572 9.83514 117.412 10.3198 118.181C10.7007 118.784 11.2136 119.294 11.8198 119.671C12.3284 119.994 12.9175 120.167 13.5198 120.171C14.1287 120.168 14.7247 119.995 15.2398 119.671C15.8461 119.294 16.3589 118.784 16.7398 118.181C17.2212 117.411 17.5789 116.571 17.7998 115.691C18.0767 114.559 18.2077 113.396 18.1898 112.231C18.2123 111.057 18.0744 109.887 17.7798 108.751C17.5609 107.876 17.203 107.042 16.7198 106.281C16.3389 105.677 15.8261 105.168 15.2198 104.791C14.7087 104.474 14.1213 104.301 13.5198 104.291C12.9086 104.298 12.3107 104.471 11.7898 104.791C11.1836 105.168 10.6707 105.677 10.2898 106.281C9.82357 107.044 9.48575 107.878 9.28983 108.751C8.99193 109.887 8.84071 111.056 8.83983 112.231Z" fill="#2A2523"/>
<path d="M34.9996 112.23C35.0225 113.436 34.8225 114.636 34.4096 115.77C34.0649 116.707 33.5381 117.567 32.8596 118.3C32.2333 118.955 31.4772 119.473 30.6396 119.82C29.8345 120.155 28.9715 120.328 28.0996 120.33C27.2156 120.333 26.3402 120.157 25.5257 119.813C24.7112 119.47 23.9745 118.965 23.3596 118.33C22.6781 117.596 22.1449 116.737 21.7896 115.8C20.9894 113.504 20.9894 111.006 21.7896 108.71C22.1498 107.779 22.6825 106.924 23.3596 106.19C23.9786 105.531 24.7324 105.012 25.5696 104.67C26.3715 104.338 27.2315 104.168 28.0996 104.17C28.9709 104.168 29.8339 104.338 30.6396 104.67C31.4812 105.009 32.2387 105.528 32.8596 106.19C33.5337 106.922 34.06 107.778 34.4096 108.71C34.8199 109.837 35.0198 111.03 34.9996 112.23ZM23.4196 112.23C23.4027 113.396 23.5405 114.56 23.8296 115.69C24.0538 116.571 24.4149 117.411 24.8996 118.18C25.2805 118.784 25.7934 119.293 26.3996 119.67C26.9077 119.994 27.4971 120.167 28.0996 120.17C28.7085 120.168 29.3044 119.994 29.8196 119.67C30.4258 119.293 30.9387 118.784 31.3196 118.18C31.8009 117.41 32.1586 116.57 32.3796 115.69C32.6564 114.558 32.7875 113.395 32.7696 112.23C32.7921 111.057 32.6542 109.886 32.3596 108.75C32.1406 107.875 31.7828 107.041 31.2996 106.28C30.9187 105.676 30.4058 105.167 29.7996 104.79C29.2885 104.473 28.701 104.3 28.0996 104.29C27.4883 104.297 26.8904 104.47 26.3696 104.79C25.7634 105.167 25.2505 105.676 24.8696 106.28C24.3858 107.04 24.031 107.874 23.8196 108.75C23.5284 109.887 23.3839 111.056 23.3896 112.23H23.4196Z" fill="#2A2523"/>
<path d="M43.0497 117C43.0121 117.694 43.1642 118.386 43.4897 119C43.8116 119.471 44.2959 119.805 44.8497 119.94H39.3097C39.8618 119.808 40.3438 119.472 40.6597 119C40.9936 118.389 41.1495 117.696 41.1097 117V114L38.3297 107.44C38.0997 106.91 37.8897 106.44 37.6997 106.08C37.5377 105.76 37.3361 105.461 37.0997 105.19C36.9093 104.972 36.6739 104.798 36.4097 104.68C36.1111 104.558 35.7922 104.494 35.4697 104.49H41.0597C40.2897 104.49 39.8497 104.7 39.7297 105.04C39.6271 105.555 39.7085 106.089 39.9597 106.55L42.9597 113.8L45.6897 107.22C46.011 106.604 46.1629 105.914 46.1297 105.22C46.0297 104.787 45.5397 104.557 44.6597 104.53H48.9497C48.6095 104.549 48.2733 104.613 47.9497 104.72C47.666 104.812 47.4064 104.965 47.1897 105.17C46.9327 105.405 46.7135 105.678 46.5397 105.98C46.3003 106.393 46.0866 106.821 45.8997 107.26L43.0497 114V117Z" fill="#2A2523"/>
<path d="M61.4796 116.889C61.3031 117.404 61.189 117.937 61.1396 118.479C61.1093 118.796 61.1793 119.114 61.3396 119.389C61.4159 119.503 61.5147 119.6 61.6299 119.674C61.7452 119.748 61.8744 119.797 62.0096 119.819C62.3643 119.902 62.7258 119.952 63.0896 119.969H49.8096C50.0598 119.95 50.3076 119.906 50.5496 119.839C50.7603 119.787 50.9535 119.68 51.1096 119.529C51.2837 119.359 51.4081 119.145 51.4696 118.909C51.573 118.555 51.6203 118.188 51.6096 117.819V106.599C51.6203 106.231 51.573 105.863 51.4696 105.509C51.4054 105.275 51.2813 105.061 51.1096 104.889C50.9535 104.738 50.7603 104.631 50.5496 104.579C50.3066 104.517 50.0592 104.474 49.8096 104.449H59.9996L60.6996 108.219C60.6396 108.039 60.5396 107.749 60.4196 107.349C60.2817 106.918 60.0684 106.515 59.7896 106.159C59.4399 105.726 59.0084 105.366 58.5196 105.099C57.8315 104.768 57.0721 104.614 56.3096 104.649H53.5196V111.649H56.6596C56.9767 111.667 57.2922 111.594 57.5696 111.439C57.7858 111.311 57.9676 111.133 58.0996 110.919C58.2314 110.712 58.3199 110.481 58.3596 110.239C58.3596 109.999 58.4496 109.769 58.4796 109.569V113.999C58.4796 113.789 58.4096 113.569 58.3596 113.329C58.3152 113.088 58.2271 112.858 58.0996 112.649C57.968 112.433 57.7862 112.251 57.5696 112.119C57.2922 111.965 56.9767 111.892 56.6596 111.909H53.5196V117.909C53.5136 118.244 53.5336 118.578 53.5796 118.909C53.6037 119.123 53.7029 119.321 53.8596 119.469C54.0456 119.625 54.2772 119.716 54.5196 119.729C54.9225 119.754 55.3266 119.754 55.7296 119.729H56.6596C57.2482 119.739 57.8368 119.702 58.4196 119.619C58.881 119.561 59.3226 119.397 59.7096 119.139C60.115 118.849 60.4555 118.478 60.7096 118.049C61.0516 117.433 61.3361 116.787 61.5596 116.119L65.6296 104.119H65.7496L70.3796 117.599C70.5028 118.003 70.6705 118.392 70.8796 118.759C71.0331 119.011 71.2294 119.234 71.4596 119.419C71.6616 119.578 71.8925 119.697 72.1396 119.769C72.3896 119.829 72.6596 119.899 72.9696 119.949H66.6796C66.9897 120.005 67.3093 119.967 67.5978 119.84C67.8863 119.713 68.1308 119.504 68.3 119.238C68.4693 118.973 68.5559 118.663 68.5486 118.348C68.5414 118.033 68.4408 117.727 68.2596 117.469L67.4296 114.919H62.1296L61.4796 116.889ZM62.1996 114.759H67.3496L64.8096 106.999L62.1996 114.759Z" fill="#2A2523"/>
<path d="M97.5303 115.41C97.5308 116.017 97.4012 116.617 97.1503 117.17C96.8813 117.734 96.4881 118.23 96.0003 118.62C95.4605 119.063 94.8434 119.402 94.1803 119.62C93.375 119.873 92.5342 119.994 91.6903 119.98C90.8688 119.98 90.0535 119.838 89.2803 119.56C88.4791 119.287 87.7002 118.953 86.9503 118.56C86.1903 118.15 85.4503 117.72 84.7303 117.24C84.0103 116.76 83.3203 116.34 82.6403 115.97C82.003 115.614 81.3333 115.319 80.6403 115.09C80.0599 114.886 79.4375 114.831 78.8303 114.93V114.87C79.7013 114.744 80.5138 114.357 81.1603 113.76C81.7543 113.203 82.2157 112.519 82.5103 111.76C82.8077 110.975 82.947 110.139 82.9203 109.3C82.9015 108.474 82.725 107.66 82.4003 106.9C82.1232 106.168 81.6698 105.515 81.0803 105C80.4504 104.517 79.6734 104.267 78.8803 104.29C78.672 104.287 78.4641 104.307 78.2603 104.35C78.094 104.385 77.9452 104.477 77.8403 104.61C77.7234 104.778 77.6449 104.969 77.6103 105.17C77.5597 105.501 77.5363 105.835 77.5403 106.17V117.48C77.532 117.848 77.5758 118.215 77.6703 118.57C77.7449 118.804 77.8753 119.017 78.0503 119.19C78.2115 119.339 78.4074 119.446 78.6203 119.5C78.8567 119.561 79.0974 119.605 79.3403 119.63H73.7803C74.0299 119.606 74.2773 119.562 74.5203 119.5C74.731 119.448 74.9242 119.341 75.0803 119.19C75.2454 119.013 75.3684 118.801 75.4403 118.57C75.5397 118.216 75.5836 117.848 75.5703 117.48V106.27C75.5836 105.902 75.5397 105.535 75.4403 105.18C75.3707 104.948 75.2474 104.736 75.0803 104.56C74.9242 104.409 74.731 104.302 74.5203 104.25C74.2776 104.184 74.0302 104.138 73.7803 104.11H78.8803C79.9519 104.087 81.0149 104.306 81.9903 104.75C82.7816 105.124 83.4711 105.683 84.0003 106.38C84.4879 107.036 84.8072 107.802 84.9303 108.61C85.0619 109.414 84.9791 110.238 84.6903 111C84.3712 111.822 83.8563 112.553 83.1903 113.13C82.3855 113.824 81.4303 114.32 80.4003 114.58C81.2919 114.508 82.1894 114.575 83.0603 114.78C83.869 114.983 84.6561 115.264 85.4103 115.62C86.139 115.962 86.8439 116.353 87.5203 116.79C88.1903 117.23 88.8403 117.63 89.5203 118.01C90.1152 118.371 90.737 118.685 91.3803 118.95C91.9644 119.202 92.5941 119.332 93.2303 119.33C93.7614 119.344 94.2914 119.273 94.8003 119.12C95.1598 119.008 95.4861 118.809 95.7503 118.54C95.9851 118.306 96.1511 118.012 96.2303 117.69C96.3201 117.364 96.3671 117.028 96.3703 116.69C96.3863 115.982 96.1446 115.293 95.6903 114.75C95.2111 114.165 94.6404 113.662 94.0003 113.26C93.2917 112.819 92.557 112.422 91.8003 112.07C91.0461 111.708 90.3147 111.301 89.6103 110.85C88.9808 110.446 88.4147 109.95 87.9303 109.38C87.4722 108.817 87.2342 108.106 87.2603 107.38C87.2439 106.817 87.3822 106.26 87.6603 105.77C87.9038 105.328 88.246 104.948 88.6603 104.66C89.1187 104.362 89.6267 104.149 90.1603 104.03C90.7273 103.897 91.3078 103.83 91.8903 103.83C92.6689 103.828 93.4438 103.939 94.1903 104.16C94.8471 104.351 95.4638 104.659 96.0103 105.07L95.6703 107.87C95.6869 107.282 95.5814 106.696 95.3603 106.15C95.1736 105.703 94.8981 105.298 94.5503 104.96C94.2182 104.654 93.8268 104.419 93.4003 104.27C92.9743 104.129 92.529 104.055 92.0803 104.05C91.6702 104.049 91.2622 104.11 90.8703 104.23C90.5063 104.342 90.167 104.522 89.8703 104.76C89.5756 104.992 89.3307 105.281 89.1503 105.61C88.9562 105.954 88.8595 106.345 88.8703 106.74C88.8636 107.346 89.0931 107.931 89.5103 108.37C89.9749 108.869 90.5107 109.297 91.1003 109.64C91.7768 110.05 92.4744 110.424 93.1903 110.76C93.9209 111.125 94.6259 111.539 95.3003 112C95.9046 112.399 96.4414 112.892 96.8903 113.46C97.3203 114.018 97.5461 114.706 97.5303 115.41Z" fill="#2A2523"/>
</svg>
