<svg width="61" height="61" viewBox="0 0 61 61" fill="none" xmlns="http://www.w3.org/2000/svg">
<path d="M10.1734 33.0638C10.1734 32.5361 9.96517 32.1223 9.55166 31.8131C9.13843 31.5042 8.47374 31.3484 7.55193 31.3484H3.44983V34.8214H7.66375C8.44781 34.8214 9.05875 34.6834 9.5044 34.4047C9.95463 34.1286 10.1734 33.6968 10.1734 33.1089V33.0638ZM9.2732 26.7505C9.2732 26.2286 9.07712 25.8269 8.67739 25.5448C8.27766 25.269 7.70075 25.131 6.95044 25.131H3.44983V28.4662H6.71898C7.50304 28.4662 8.12317 28.3311 8.58556 28.073C9.04336 27.8092 9.2732 27.3805 9.2732 26.7955V26.7505ZM13.2467 35.4331C12.9618 35.9731 12.5591 36.4229 12.0276 36.7859C11.4995 37.1427 10.8656 37.4188 10.1261 37.5958C9.38043 37.7757 8.55666 37.8625 7.65618 37.8625H0V22.0866H7.46793C9.12303 22.0866 10.4184 22.4525 11.3615 23.1906C12.3033 23.9253 12.7733 24.918 12.7733 26.1658V26.2108C12.7733 26.6636 12.7198 27.0565 12.602 27.4043C12.4902 27.7493 12.3387 28.0643 12.1488 28.3401C11.9557 28.622 11.7353 28.8649 11.4871 29.0718C11.2346 29.2848 10.9667 29.4647 10.6758 29.6149C11.6084 29.9628 12.34 30.4307 12.8729 31.0244C13.4058 31.6181 13.6724 32.4402 13.6724 33.4898V33.5378C13.6724 34.2605 13.5314 34.8905 13.2467 35.4331Z" fill="#2A2523"/>
<path d="M55.9756 25.2867V37.8625H52.3476V25.2867H47.3269V22.0866H60.9993V25.2867H55.9756Z" fill="#2A2523"/>
<path d="M27.8372 3.15163V6.50941H35.7422V9.66936H27.8372V15.7766H24.1895V0.000683784H36.8101V3.15163H27.8372Z" fill="#2A2523"/>
<path d="M60.5707 59.9485L0 0.424858L0.43088 -4.57764e-05L60.9999 59.5266L60.5707 59.9485Z" fill="#2A2523"/>
<path d="M0.430879 59.9485L0 59.5266L60.5707 -4.57764e-05L60.9999 0.424858L0.430879 59.9485Z" fill="#2A2523"/>
<path d="M28.3955 27.3458H32.6024V32.6045H28.3955V27.3458Z" fill="#2A2523"/>
<path d="M23.4417 58.9758L22.1035 56.9685C22.059 56.8902 22.1035 56.7941 22.1924 56.7941H22.4529C22.492 56.7941 22.5255 56.8242 22.5419 56.8484L23.6636 58.525L24.7852 56.8484C24.8017 56.8242 24.8351 56.7941 24.8743 56.7941H25.1348C25.2239 56.7941 25.2681 56.8902 25.2239 56.9685L23.869 58.9697V60.887C23.869 60.9469 23.8193 61.001 23.7637 61.001H23.547C23.4862 61.001 23.4417 60.9469 23.4417 60.887V58.9758Z" fill="#2A2523"/>
<path d="M26.2928 56.908C26.2928 56.8481 26.3319 56.7941 26.3856 56.7941H28.3035C28.3572 56.7941 28.3963 56.8481 28.3963 56.908V57.0822C28.3963 57.1424 28.3572 57.1967 28.3035 57.1967H26.668V58.663H28.0652C28.1139 58.663 28.1577 58.7174 28.1577 58.7776V58.9517C28.1577 59.0175 28.1139 59.0657 28.0652 59.0657H26.668V60.5983H28.3035C28.3572 60.5983 28.3963 60.6527 28.3963 60.7129V60.887C28.3963 60.9469 28.3572 61.001 28.3035 61.001H26.3856C26.3319 61.001 26.2928 60.9469 26.2928 60.887V56.908Z" fill="#2A2523"/>
<path d="M31.4636 59.5906C31.1484 58.9451 30.8398 58.2932 30.5242 57.6473H30.4729L29.5341 59.5906H31.4636ZM28.4084 60.8469L30.3635 56.8595C30.3832 56.8237 30.4151 56.7941 30.4729 56.7941H30.5374C30.5955 56.7941 30.6274 56.8237 30.6465 56.8595L32.5894 60.8469C32.6282 60.9238 32.5766 61.001 32.4803 61.001H32.2226C32.1648 61.001 32.1263 60.9653 32.1135 60.9356L31.6372 59.9582H29.3537L28.8846 60.9356C28.8715 60.9653 28.833 61.001 28.7752 61.001H28.5175C28.4212 61.001 28.3699 60.9238 28.4084 60.8469Z" fill="#2A2523"/>
<path d="M34.3402 58.9577C34.8297 58.9577 35.2555 58.5732 35.2555 58.08C35.2555 57.6236 34.8297 57.2329 34.3402 57.2329H33.1065V58.9577H34.3402ZM32.6034 56.9083C32.6034 56.8484 32.6544 56.7941 32.7249 56.7941H34.3718C35.1349 56.7941 35.7586 57.3592 35.7586 58.0741C35.7586 58.627 35.3702 59.0898 34.817 59.3002L35.6881 60.8265C35.7329 60.9046 35.6881 61.001 35.5801 61.001H35.2555C35.1986 61.001 35.167 60.9709 35.1544 60.9466L34.3081 59.3545H33.0935V60.8867C33.0935 60.9466 33.036 61.001 32.9723 61.001H32.7249C32.6544 61.001 32.6034 60.9466 32.6034 60.8867V56.9083Z" fill="#2A2523"/>
<path d="M36.8368 60.3289C36.8606 60.2937 36.8844 60.253 36.9087 60.2181C36.9567 60.142 37.0094 60.0954 37.0766 60.1653C37.1099 60.2005 37.4605 60.6095 37.8872 60.6095C38.2758 60.6095 38.5302 60.3113 38.5302 59.9667C38.5302 59.5634 38.2424 59.3242 37.6906 59.0435C37.1631 58.7632 36.8464 58.5001 36.8464 57.8343C36.8464 57.4369 37.1055 56.7941 37.8681 56.7941C38.338 56.7941 38.6883 57.0923 38.6883 57.0923C38.7168 57.1097 38.7744 57.1798 38.7168 57.2909C38.6981 57.3258 38.6788 57.3667 38.6597 57.4019C38.6163 57.4835 38.5682 57.5068 38.4917 57.4545C38.4579 57.4312 38.1559 57.1855 37.863 57.1855C37.3548 57.1855 37.2011 57.5829 37.2011 57.8283C37.2011 58.22 37.4458 58.4476 37.849 58.6521C38.4962 58.9736 38.9136 59.2713 38.9136 59.9491C38.9136 60.5567 38.4386 61.001 37.8777 61.001C37.3117 61.001 36.9278 60.5979 36.8658 60.5275C36.8273 60.4865 36.7792 60.44 36.8368 60.3289Z" fill="#2A2523"/>
<path d="M22.9824 45.707L21.7911 46.3997C21.6592 46.474 21.5266 46.4863 21.4107 46.3874L21.0969 46.1277C20.981 46.0287 21.0472 45.9172 21.1297 45.8554L23.4457 44.1726H23.8923C24.0571 44.1726 24.1897 44.2839 24.1897 44.4077V52.3513C24.1897 52.4752 24.0571 52.5864 23.8923 52.5864H23.2963C23.1143 52.5864 22.9824 52.4752 22.9824 52.3513V45.707Z" fill="#2A2523"/>
<path d="M30.7831 48.3794C30.7831 46.2039 30.1126 44.9536 28.9223 44.9536C27.732 44.9536 27.0609 46.2039 27.0609 48.3794C27.0609 50.579 27.732 51.8051 28.9223 51.8051C30.1126 51.8051 30.7831 50.579 30.7831 48.3794ZM26.2928 48.3794C26.2928 45.7471 27.2453 44.1726 28.9223 44.1726C30.5995 44.1726 31.5515 45.7471 31.5515 48.3794C31.5515 51.0119 30.5995 52.5864 28.9223 52.5864C27.2453 52.5864 26.2928 51.0119 26.2928 48.3794Z" fill="#2A2523"/>
<path d="M39.0433 48.3794C39.0433 46.2039 38.2381 44.9536 36.8097 44.9536C35.3814 44.9536 34.5761 46.2039 34.5761 48.3794C34.5761 50.579 35.3814 51.8051 36.8097 51.8051C38.2381 51.8051 39.0433 50.579 39.0433 48.3794ZM33.6544 48.3794C33.6544 45.7471 34.7973 44.1726 36.8097 44.1726C38.8224 44.1726 39.9648 45.7471 39.9648 48.3794C39.9648 51.0119 38.8224 52.5864 36.8097 52.5864C34.7973 52.5864 33.6544 51.0119 33.6544 48.3794Z" fill="#2A2523"/>
</svg>
