<svg width="70" height="70" viewBox="0 0 70 70" fill="none" xmlns="http://www.w3.org/2000/svg">
<path d="M11.6077 37.7249C11.6077 37.1228 11.3701 36.6506 10.8983 36.2979C10.4268 35.9454 9.66839 35.7677 8.61662 35.7677H3.9362V39.7303H8.74421C9.63881 39.7303 10.3359 39.5728 10.8444 39.2548C11.3581 38.9398 11.6077 38.4471 11.6077 37.7763V37.7249ZM10.5806 30.5215C10.5806 29.926 10.3568 29.4678 9.90075 29.1458C9.44467 28.8312 8.78642 28.6737 7.93034 28.6737H3.9362V32.4791H7.66624C8.56085 32.4791 9.2684 32.3249 9.79597 32.0305C10.3183 31.7294 10.5806 31.2404 10.5806 30.5729V30.5215ZM15.1143 40.4283C14.7892 41.0443 14.3297 41.5576 13.7232 41.9717C13.1208 42.3789 12.3975 42.6939 11.5538 42.8958C10.7029 43.101 9.763 43.2002 8.73558 43.2002H0V25.2001H8.52078C10.4092 25.2001 11.8872 25.6176 12.9633 26.4597C14.0379 27.298 14.5741 28.4306 14.5741 29.8544V29.9058C14.5741 30.4224 14.5131 30.8707 14.3787 31.2676C14.2511 31.6611 14.0782 32.0205 13.8616 32.3352C13.6413 32.6569 13.3898 32.934 13.1066 33.1701C12.8185 33.4132 12.5128 33.6184 12.1809 33.7898C13.245 34.1867 14.0798 34.7205 14.6878 35.398C15.2958 36.0754 15.6 37.0134 15.6 38.211V38.2657C15.6 39.0903 15.4391 39.8092 15.1143 40.4283Z" fill="#FFFEF2"/>
<path d="M63.868 28.8514V43.2002H59.7285V28.8514H54V25.2001H69.6V28.8514H63.868Z" fill="#FFFEF2"/>
<path d="M31.7616 3.59511V7.42628H40.7811V11.0317H31.7616V18H27.5996V-6.86646e-05H41.9996V3.59511H31.7616Z" fill="#FFFEF2"/>
<path d="M69.1101 68.4004L0 0.484932L0.491627 0.00012207L69.5999 67.919L69.1101 68.4004Z" fill="#FFFEF2"/>
<path d="M0.491626 68.4004L0 67.919L69.1101 0.00012207L69.5999 0.484932L0.491626 68.4004Z" fill="#FFFEF2"/>
<path d="M32.3994 31.2002H37.1994V37.2002H32.3994V31.2002Z" fill="#FFFEF2"/>
<path d="M26.7469 67.2899L25.2201 64.9996C25.1693 64.9102 25.2201 64.8006 25.3215 64.8006H25.6187C25.6634 64.8006 25.7016 64.8349 25.7203 64.8626L27.0001 66.7755L28.2799 64.8626C28.2987 64.8349 28.3369 64.8006 28.3815 64.8006H28.6787C28.7804 64.8006 28.8309 64.9102 28.7804 64.9996L27.2345 67.2829V69.4706C27.2345 69.5389 27.1778 69.6006 27.1144 69.6006H26.867C26.7977 69.6006 26.7469 69.5389 26.7469 69.4706V67.2899Z" fill="#FFFEF2"/>
<path d="M30 64.9306C30 64.8622 30.0446 64.8006 30.1059 64.8006H32.2941C32.3554 64.8006 32.4 64.8622 32.4 64.9306V65.1293C32.4 65.198 32.3554 65.26 32.2941 65.26H30.428V66.933H32.0222C32.0778 66.933 32.1278 66.995 32.1278 67.0637V67.2624C32.1278 67.3374 32.0778 67.3925 32.0222 67.3925H30.428V69.1412H32.2941C32.3554 69.1412 32.4 69.2032 32.4 69.2718V69.4706C32.4 69.5389 32.3554 69.6006 32.2941 69.6006H30.1059C30.0446 69.6006 30 69.5389 30 69.4706V64.9306Z" fill="#FFFEF2"/>
<path d="M35.9001 67.9914C35.5404 67.2548 35.1883 66.511 34.8282 65.7741H34.7697L33.6986 67.9914H35.9001ZM32.4141 69.4247L34.6448 64.8752C34.6673 64.8344 34.7037 64.8006 34.7697 64.8006H34.8432C34.9096 64.8006 34.946 64.8344 34.9678 64.8752L37.1846 69.4247C37.2289 69.5125 37.17 69.6006 37.0601 69.6006H36.7661C36.7001 69.6006 36.6562 69.5598 36.6415 69.526L36.0981 68.4108H33.4927L32.9575 69.526C32.9425 69.5598 32.8986 69.6006 32.8326 69.6006H32.5386C32.4287 69.6006 32.3702 69.5125 32.4141 69.4247Z" fill="#FFFEF2"/>
<path d="M39.1819 67.2693C39.7404 67.2693 40.2262 66.8305 40.2262 66.2678C40.2262 65.747 39.7404 65.3013 39.1819 65.3013H37.7742V67.2693H39.1819ZM37.2002 64.9309C37.2002 64.8626 37.2584 64.8006 37.3388 64.8006H39.2179C40.0886 64.8006 40.8002 65.4453 40.8002 66.2611C40.8002 66.8919 40.3571 67.4199 39.7259 67.66L40.7197 69.4016C40.7709 69.4906 40.7197 69.6006 40.5966 69.6006H40.2262C40.1613 69.6006 40.1253 69.5662 40.1108 69.5386L39.1452 67.722H37.7594V69.4702C37.7594 69.5386 37.6938 69.6006 37.6211 69.6006H37.3388C37.2584 69.6006 37.2002 69.5386 37.2002 69.4702V64.9309Z" fill="#FFFEF2"/>
<path d="M42.0304 68.8337C42.0576 68.7936 42.0847 68.7472 42.1124 68.7073C42.1672 68.6205 42.2273 68.5673 42.304 68.6471C42.342 68.6873 42.742 69.154 43.2289 69.154C43.6722 69.154 43.9625 68.8137 43.9625 68.4205C43.9625 67.9603 43.6342 67.6874 43.0046 67.3672C42.4027 67.0473 42.0413 66.7472 42.0413 65.9874C42.0413 65.534 42.337 64.8006 43.2071 64.8006C43.7433 64.8006 44.1429 65.1409 44.1429 65.1409C44.1754 65.1606 44.2411 65.2407 44.1754 65.3674C44.1541 65.4073 44.132 65.454 44.1102 65.4942C44.0607 65.5872 44.0059 65.6138 43.9186 65.5541C43.88 65.5275 43.5355 65.2472 43.2012 65.2472C42.6214 65.2472 42.4461 65.7006 42.4461 65.9806C42.4461 66.4276 42.7252 66.6872 43.1853 66.9205C43.9237 67.2874 44.4 67.6271 44.4 68.4004C44.4 69.0937 43.858 69.6006 43.218 69.6006C42.5722 69.6006 42.1342 69.1407 42.0634 69.0603C42.0195 69.0136 41.9647 68.9605 42.0304 68.8337Z" fill="#FFFEF2"/>
<path d="M26.2225 52.1507L24.8633 52.941C24.7128 53.0259 24.5614 53.0399 24.4292 52.927L24.0711 52.6307C23.9389 52.5178 24.0144 52.3905 24.1086 52.32L26.7511 50.4H27.2606C27.4486 50.4 27.6 50.5269 27.6 50.6682V59.7318C27.6 59.8731 27.4486 60 27.2606 60H26.5806C26.373 60 26.2225 59.8731 26.2225 59.7318V52.1507Z" fill="#FFFEF2"/>
<path d="M35.1233 55.1998C35.1233 52.7176 34.3582 51.2911 33.0001 51.2911C31.642 51.2911 30.8764 52.7176 30.8764 55.1998C30.8764 57.7096 31.642 59.1086 33.0001 59.1086C34.3582 59.1086 35.1233 57.7096 35.1233 55.1998ZM30 55.1998C30 52.1965 31.0867 50.4 33.0001 50.4C34.9138 50.4 36 52.1965 36 55.1998C36 58.2035 34.9138 60 33.0001 60C31.0867 60 30 58.2035 30 55.1998Z" fill="#FFFEF2"/>
<path d="M44.5481 55.1998C44.5481 52.7176 43.6293 51.2911 41.9996 51.2911C40.3699 51.2911 39.4511 52.7176 39.4511 55.1998C39.4511 57.7096 40.3699 59.1086 41.9996 59.1086C43.6293 59.1086 44.5481 57.7096 44.5481 55.1998ZM38.3994 55.1998C38.3994 52.1965 39.7035 50.4 41.9996 50.4C44.296 50.4 45.5994 52.1965 45.5994 55.1998C45.5994 58.2035 44.296 60 41.9996 60C39.7035 60 38.3994 58.2035 38.3994 55.1998Z" fill="#FFFEF2"/>
</svg>
