<?xml version="1.0" encoding="UTF-8"?>
<svg version="1.1" xmlns="http://www.w3.org/2000/svg" width="335" height="250">
<path d="M0 0 C21.05834158 1.58436848 41.71805617 3.0670751 62.79229736 0.72424316 C69.23248558 0.06619944 75.67444185 0.01709904 82.14337158 -0.06726074 C83.53163537 -0.08808472 84.91989519 -0.10917474 86.30815125 -0.13050842 C90.0497217 -0.1864331 93.79134888 -0.23601484 97.53303528 -0.28348541 C99.88822777 -0.31353808 102.24339987 -0.34490403 104.59857178 -0.37652588 C153.41756012 -1.02527052 202.25700181 -1.32154963 251.06134033 0.24914551 C252.33306861 2.79260207 251.79406467 3.56648347 251.06134033 6.24914551 C250.92204677 7.61591183 250.81768733 8.9866022 250.74493408 10.35852051 C250.70303955 11.11262207 250.66114502 11.86672363 250.61798096 12.64367676 C250.55900635 13.80963379 250.55900635 13.80963379 250.49884033 14.99914551 C250.45565674 15.79191895 250.41247314 16.58469238 250.36798096 17.40148926 C250.26231042 19.35052365 250.16136067 21.29981299 250.06134033 23.24914551 C235.6449574 23.32033114 221.22859873 23.3726542 206.81207371 23.40458202 C200.11295159 23.41982369 193.41396353 23.4408614 186.71490479 23.47546387 C159.07929698 23.61450343 131.67275617 23.48034846 104.12718964 21.13145638 C103.35530556 21.06579916 102.58342148 21.00014194 101.78814697 20.93249512 C101.03704903 20.86851469 100.28595108 20.80453426 99.51209259 20.73861504 C88.18783634 19.80806826 76.85327163 19.83763432 65.49884033 19.93664551 C63.18503916 19.94535389 60.87123703 19.95381286 58.55743408 19.96203613 C44.94383452 20.04054924 31.4212746 20.50245577 17.84747314 21.53039551 C8.79763765 22.20601211 -0.18090481 22.44108736 -9.25115967 22.43664551 C-10.46803467 22.43729004 -11.68490967 22.43793457 -12.93865967 22.43859863 C-19.14834852 22.40035307 -25.24857108 22.10280868 -31.42572021 21.47839355 C-35.18247709 21.13567572 -38.91807199 21.05821302 -42.68865967 21.06164551 C-43.45597412 21.06100098 -44.22328857 21.06035645 -45.01385498 21.05969238 C-51.23075196 21.11623299 -57.15548692 21.86026926 -63.30194092 22.80383301 C-69.18416993 23.52410595 -75.01765379 23.41336447 -80.93865967 23.24914551 C-81.81965702 20.27095917 -82.0057113 17.79621686 -81.81756592 14.70227051 C-81.76922607 13.85793457 -81.72088623 13.01359863 -81.67108154 12.14367676 C-81.58697021 10.83463379 -81.58697021 10.83463379 -81.50115967 9.49914551 C-81.44895264 8.61098145 -81.39674561 7.72281738 -81.34295654 6.80773926 C-81.21364233 4.62115354 -81.07869325 2.43506657 -80.93865967 0.24914551 C-61.7436871 -10.82487713 -21.54016246 -1.6221221 0 0 Z " fill="#F5F7F7" transform="translate(82.93865966796875,222.7508544921875)"/>
<path d="M0 0 C1.16186829 0.00531738 2.32373657 0.01063477 3.52081299 0.01611328 C15.57747688 0.14369916 27.56122837 1.01539575 39.57669067 1.96035767 C58.41851416 3.42732523 77.20445389 4.65437614 96.109375 4.5625 C96.89735474 4.55968018 97.68533447 4.55686035 98.49719238 4.55395508 C104.75856207 4.51873965 110.97862798 4.44259069 117.20800781 3.75488281 C123.26887031 3.12022984 129.31242754 3.02115452 135.40234375 2.93359375 C136.66063995 2.91272202 137.91893616 2.89185028 139.21536255 2.87034607 C142.66533165 2.81422394 146.11536374 2.76467454 149.56546402 2.71736908 C151.74974212 2.68728837 153.93399862 2.65590211 156.11825562 2.62432861 C180.1933682 2.28102127 204.26795959 2.14244773 228.34540176 2.12706375 C230.80907797 2.12504129 233.27274622 2.12129996 235.73641968 2.11715698 C259.35538286 2.08236755 282.93926012 2.52579449 306.546875 3.25 C306.216875 10.51 305.886875 17.77 305.546875 25.25 C290.03728193 25.29543451 274.52772267 25.3321546 259.01808071 25.35362434 C251.81403124 25.36386534 244.61002655 25.37778527 237.40600586 25.40087891 C231.11498052 25.42103589 224.82398766 25.4337683 218.53293091 25.43817699 C215.21274954 25.44074736 211.89273351 25.44774105 208.57256889 25.46146011 C195.15792888 25.51461542 181.93110463 25.2906497 168.57637691 23.97221851 C159.62527369 23.10187376 150.752287 22.97557415 141.765625 23.01953125 C140.08565303 23.02073074 138.40568038 23.0211746 136.72570801 23.0209198 C133.25394311 23.02246008 129.78228495 23.03056051 126.31054688 23.04418945 C121.90599514 23.06128278 117.50155829 23.06499912 113.09697723 23.06424427 C109.64618882 23.06451849 106.19542448 23.07003804 102.74464417 23.07724571 C101.12146688 23.08037912 99.49828694 23.08238696 97.87510681 23.08313942 C88.8280804 23.09194387 79.88312883 23.35650057 70.85791016 24.0243988 C66.56665107 24.31678869 62.29963825 24.39460696 58 24.3828125 C57.17844421 24.38376923 56.35688843 24.38472595 55.51043701 24.38571167 C53.79667076 24.38638246 52.08290178 24.38460663 50.36914062 24.38037109 C47.81374095 24.37503522 45.25851923 24.38034008 42.703125 24.38671875 C33.42452446 24.38927984 24.20013677 24.18225613 14.94244385 23.52249146 C8.8763022 23.12776354 3.34958915 23.73582445 -2.66015625 24.69921875 C-7.02702076 25.33333605 -11.36324834 25.67493465 -15.765625 25.9375 C-16.86994873 26.00976807 -16.86994873 26.00976807 -17.99658203 26.08349609 C-23.203861 26.374632 -23.203861 26.374632 -25.453125 25.25 C-25.48207047 21.79168414 -25.499905 18.33339928 -25.515625 14.875 C-25.52400391 13.89015625 -25.53238281 12.9053125 -25.54101562 11.890625 C-25.54423828 10.94960937 -25.54746094 10.00859375 -25.55078125 9.0390625 C-25.55601807 8.16975098 -25.56125488 7.30043945 -25.56665039 6.40478516 C-25.453125 4.25 -25.453125 4.25 -24.453125 2.25 C-16.48332442 0.07334069 -8.20522728 -0.07001859 0 0 Z " fill="#F5F7F7" transform="translate(27.453125,71.75)"/>
<path d="M0 0 C1.2384668 -0.00108765 1.2384668 -0.00108765 2.50195312 -0.00219727 C25.35454195 -0.00003155 48.17783468 1.10292794 71 2.1875 C72.08491214 6.09889376 72.14803463 9.84010038 72.125 13.875 C72.12886719 14.56400391 72.13273437 15.25300781 72.13671875 15.96289062 C72.12669335 21.06080665 72.12669335 21.06080665 71 22.1875 C68.91964359 22.29225248 66.83568191 22.32550935 64.75270081 22.33226013 C64.0923214 22.33578698 63.43194199 22.33931382 62.75155109 22.34294754 C60.52129082 22.3536873 58.29107319 22.35732503 56.06079102 22.36108398 C54.46737994 22.36738659 52.87397064 22.37415206 51.28056335 22.38134766 C47.83586049 22.39605811 44.39116461 22.40776777 40.94644356 22.41729546 C35.47418691 22.4327616 30.00198793 22.45672223 24.5297699 22.48219299 C8.96299918 22.55332187 -6.60380727 22.61267448 -22.1706543 22.66430664 C-30.75877332 22.6928678 -39.34683763 22.72840238 -47.93489891 22.77096039 C-52.46962103 22.7930891 -57.0042935 22.81171051 -61.53906059 22.82140923 C-78.41176871 22.85878744 -95.1554551 22.97393135 -111.97466183 24.47225475 C-123.34626681 25.46380758 -134.68616346 25.47746839 -146.09375 25.453125 C-148.39001506 25.45447878 -150.68627984 25.45642516 -152.98254395 25.45892334 C-157.74197174 25.46183643 -162.50132339 25.457699 -167.26074219 25.44824219 C-173.30945581 25.43679752 -179.35799281 25.44346329 -185.40670013 25.45538712 C-190.12891944 25.46266546 -194.85109785 25.46029144 -199.57331848 25.45513153 C-201.8024752 25.45381421 -204.03163585 25.45537396 -206.26078796 25.46009064 C-217.96947128 25.47945936 -229.44771675 25.20932587 -241.06506348 23.67669678 C-247.35788869 22.894364 -253.67020407 22.54226732 -260 22.1875 C-261.33769559 18.30418968 -260.9309827 14.51984777 -260.625 10.5 C-260.58117187 9.81099609 -260.53734375 9.12199219 -260.4921875 8.41210938 C-260.13162202 3.31912202 -260.13162202 3.31912202 -259 2.1875 C-249.19480139 1.55727049 -239.39560633 2.41371683 -229.625 3.1875 C-212.49862495 4.5104238 -195.21839508 5.52607613 -178.21484375 2.640625 C-166.74936721 1.02459186 -154.98109498 2.35930322 -143.5 3.1875 C-133.89113281 3.87406199 -124.32257213 4.40141359 -114.6875 4.4375 C-113.28757813 4.45103516 -113.28757813 4.45103516 -111.859375 4.46484375 C-106.9864675 4.44434063 -102.25628825 4.12754296 -97.42414856 3.48222351 C-85.14104209 1.8420326 -72.87693284 1.76971214 -60.5 1.625 C-56.07283475 1.56616403 -51.64577712 1.50202159 -47.21875 1.43359375 C-46.15108398 1.41753586 -45.08341797 1.40147797 -43.98339844 1.38493347 C-37.98646833 1.28168367 -32.01561892 1.07048536 -26.03125 0.671875 C-17.35173369 0.09389278 -8.69700509 -0.00790956 0 0 Z " fill="#F4F6F6" transform="translate(262,141.8125)"/>
<path d="M0 0 C1.34705593 0.00138106 2.69411201 0.0026108 4.04116821 0.00369263 C20.19721799 0.01901035 36.34963352 0.10299538 52.5 0.5625 C53.58370377 0.59183624 53.58370377 0.59183624 54.68930054 0.62176514 C65.94234412 0.93992206 65.94234412 0.93992206 68.3125 2.125 C68.33933987 5.10422593 68.35926037 8.08321295 68.375 11.0625 C68.38337891 11.91263672 68.39175781 12.76277344 68.40039062 13.63867188 C68.40522461 14.85200195 68.40522461 14.85200195 68.41015625 16.08984375 C68.41801147 17.21314087 68.41801147 17.21314087 68.42602539 18.35913086 C68.3125 20.125 68.3125 20.125 67.3125 21.125 C65.87725175 21.23272714 64.43678362 21.27181352 62.99754333 21.28321838 C61.59760635 21.29790161 61.59760635 21.29790161 60.16938782 21.31288147 C58.61878914 21.32151466 58.61878914 21.32151466 57.03686523 21.33032227 C55.95314636 21.34022186 54.86942749 21.35012146 53.75286865 21.36032104 C50.1256331 21.39217938 46.49838559 21.41685464 42.87109375 21.44140625 C40.31950072 21.46202099 37.76791075 21.48301849 35.21632385 21.50437927 C29.82139879 21.54851634 24.42646421 21.58948656 19.03149414 21.62768555 C12.26919418 21.67558593 5.50696358 21.72956413 -1.25527382 21.78568459 C-7.83813308 21.83998025 -14.42101538 21.89110521 -21.00390625 21.94140625 C-22.30734608 21.95148335 -23.6107859 21.96156044 -24.95372391 21.9719429 C-38.443481 22.07356176 -51.93129974 22.14405879 -65.42138672 22.08154297 C-66.50263667 22.07747279 -67.58388662 22.07340261 -68.69790173 22.0692091 C-73.66567192 22.05006902 -78.63292595 22.02183311 -83.60047913 21.97157288 C-93.1264117 21.90717207 -102.49741333 22.27237768 -111.98828125 23.11450195 C-124.52172631 24.22417085 -136.95895127 24.41759686 -149.53515625 24.390625 C-151.81522157 24.39197841 -154.0952866 24.39392449 -156.37535095 24.39642334 C-161.10206918 24.39933751 -165.82871075 24.3951949 -170.55541992 24.38574219 C-176.5696086 24.37429049 -182.5836198 24.38096692 -188.59780216 24.39288712 C-193.28648691 24.40015653 -197.97513038 24.39779558 -202.66381645 24.39263153 C-204.88067077 24.39131212 -207.09752903 24.39288166 -209.31437874 24.39759064 C-220.50150684 24.4161701 -231.42720203 24.2267008 -242.50671387 22.59016418 C-246.70761833 21.97581596 -250.88683528 21.72910091 -255.125 21.5625 C-262.55835635 21.25414365 -262.55835635 21.25414365 -263.6875 20.125 C-263.59786938 18.43358344 -263.44172324 16.74540398 -263.25 15.0625 C-263.14816406 14.14339844 -263.04632813 13.22429688 -262.94140625 12.27734375 C-262.85761719 11.56707031 -262.77382813 10.85679688 -262.6875 10.125 C-263.3475 10.125 -264.0075 10.125 -264.6875 10.125 C-264.6875 8.145 -264.6875 6.165 -264.6875 4.125 C-257.15187058 1.43370378 -250.9221201 1.04887641 -243.046875 1.68359375 C-241.66353973 1.78559837 -241.66353973 1.78559837 -240.2522583 1.8896637 C-237.31345376 2.10720403 -234.37548535 2.3341829 -231.4375 2.5625 C-228.5137304 2.78604826 -225.58983818 3.00744515 -222.66558838 3.22462463 C-220.85095657 3.35975406 -219.03659672 3.49860982 -217.22259521 3.64195251 C-209.06391308 4.25610624 -201.15095954 4.51490236 -193.0625 3.125 C-184.57653906 1.87601682 -176.05622722 1.92867131 -167.5 1.9375 C-166.4763736 1.93641235 -166.4763736 1.93641235 -165.43206787 1.93530273 C-158.71577399 1.93610884 -152.03849168 2.0416759 -145.34375 2.62890625 C-137.81711539 3.2727879 -130.31395266 3.27556067 -122.76538086 3.25537109 C-120.36110241 3.24996877 -117.9570075 3.25537309 -115.55273438 3.26171875 C-113.99739543 3.2610585 -112.44205659 3.25977844 -110.88671875 3.2578125 C-109.82864265 3.26084885 -109.82864265 3.26084885 -108.74919128 3.26394653 C-104.68819444 3.24507122 -100.7938242 2.9116836 -96.76185608 2.36080933 C-92.94309955 1.92669948 -89.11319402 1.90653267 -85.2734375 1.84375 C-84.38250397 1.82534058 -83.49157043 1.80693115 -82.57363892 1.78796387 C-79.73665431 1.7297135 -76.89960811 1.67685695 -74.0625 1.625 C-70.36190311 1.55553265 -66.6613939 1.48284319 -62.9609375 1.40625 C-62.02609024 1.38714569 -61.09124298 1.36804138 -60.12806702 1.34835815 C-53.79261976 1.2062166 -47.47268108 0.92982262 -41.14453125 0.6015625 C-27.43463004 -0.08300861 -13.72368495 -0.02725542 0 0 Z " fill="#F4F6F6" transform="translate(265.6875,3.875)"/>
<path d="M0 0 C12.00058266 0.526004 23.98072806 0.66167429 35.99169922 0.63818359 C39.27706412 0.63276789 42.56229513 0.63820483 45.84765625 0.64453125 C55.7580626 0.64731737 65.61060298 0.52578522 75.4997406 -0.13853455 C87.70699574 -0.94649905 99.83732091 -0.33980333 112.03372192 0.30545044 C129.49402324 1.22566066 146.94406882 1.8422091 164.42553711 2.16577148 C165.21681 2.18207611 166.00808289 2.19838074 166.82333374 2.21517944 C168.30317141 2.24546126 169.78310019 2.27165888 171.26309204 2.29312134 C176.13755111 2.39536361 176.13755111 2.39536361 177.25 3.5078125 C177.32226502 5.36068752 177.3338122 7.21615128 177.3125 9.0703125 C177.30347656 10.08222656 177.29445313 11.09414062 177.28515625 12.13671875 C177.26775391 13.31041016 177.26775391 13.31041016 177.25 14.5078125 C151.25146757 17.14161219 125.14926881 16.94749242 99.04674149 17.10850143 C94.01618994 17.14125188 88.98571014 17.18155788 83.9552145 17.22188473 C55.35933374 17.45015847 26.76784863 17.53839045 -1.82855225 17.43173218 C-17.71053909 17.38206077 -33.42900161 17.81692006 -49.265625 18.9921875 C-80.05005242 21.2511412 -111.08141837 21.12859659 -141.75 17.5078125 C-142.44802734 17.42917969 -143.14605469 17.35054687 -143.86523438 17.26953125 C-151.81027286 16.35129957 -151.81027286 16.35129957 -154.75 15.5078125 C-156.8702151 12.32748985 -156.9995865 11.96213851 -156.5 8.4453125 C-156.41234375 7.75308594 -156.3246875 7.06085938 -156.234375 6.34765625 C-155.75 4.5078125 -155.75 4.5078125 -153.75 2.5078125 C-150.8397821 2.30017463 -148.02273394 2.21734354 -145.1105957 2.22070312 C-144.21400238 2.21387009 -143.31740906 2.20703705 -142.39364624 2.19999695 C-140.43647597 2.18636965 -138.47926967 2.1773417 -136.52205849 2.17228699 C-133.39220198 2.16397331 -130.26263392 2.14342737 -127.13285828 2.11975098 C-120.44278244 2.07141244 -113.7526757 2.03875432 -107.0625 2.0078125 C-98.35016783 1.96683392 -89.6379576 1.91829365 -80.92578125 1.8515625 C-79.86698887 1.8436972 -78.80819649 1.83583191 -77.71731949 1.82772827 C-62.46324006 1.70207389 -47.33601524 1.14912671 -32.12963867 -0.07226562 C-21.41273841 -0.87756039 -10.72152502 -0.51841534 0 0 Z " fill="#F1F3F3" transform="translate(156.75,182.4921875)"/>
<path d="M0 0 C13.6953665 0.67981761 27.37152293 0.7510334 41.08154297 0.76245117 C42.639944 0.76619751 42.639944 0.76619751 44.22982788 0.77001953 C55.1063926 0.79147126 65.87881474 0.63024523 76.72949219 -0.140625 C89.90970575 -0.89996168 103.09668842 -0.2507803 116.26593018 0.43508911 C133.13202047 1.31181361 149.99055949 1.95271719 166.87597656 2.29541016 C167.59581726 2.31171478 168.31565796 2.32801941 169.05731201 2.34481812 C170.98669301 2.38833691 172.91619689 2.42630897 174.84570312 2.46386719 C177.58154297 2.63745117 177.58154297 2.63745117 178.58154297 3.63745117 C178.67978234 5.30174169 178.71127928 6.97027048 178.70654297 8.63745117 C178.70912109 9.54495117 178.71169922 10.45245117 178.71435547 11.38745117 C178.58154297 13.63745117 178.58154297 13.63745117 177.58154297 14.63745117 C175.18352899 14.87965922 172.81380377 15.05438913 170.40869141 15.18237305 C169.65280605 15.22426506 168.8969207 15.26615707 168.11812973 15.30931854 C159.21482844 15.76233048 150.30856542 15.83689195 141.39545441 15.89781189 C138.25022454 15.91936551 135.10507733 15.94634217 131.9598999 15.9744873 C125.25048245 16.0335422 118.54102058 16.08576532 111.83154297 16.13745117 C103.045044 16.20592781 94.25858653 16.27805823 85.47216797 16.35620117 C83.86168548 16.37024899 83.86168548 16.37024899 82.21866798 16.38458061 C67.59511326 16.51615358 52.98431598 16.79629138 38.36717033 17.24189949 C25.17422776 17.64116195 12.00117392 17.69790234 -1.19805908 17.59863281 C-17.67959449 17.48410186 -34.0986206 17.4537689 -50.54345703 18.63745117 C-79.50112401 20.71303792 -109.01911573 20.56994698 -137.91845703 17.69995117 C-138.67860107 17.62534668 -139.43874512 17.55074219 -140.22192383 17.47387695 C-144.81208992 16.96771138 -149.01192784 16.02318864 -153.41845703 14.63745117 C-154.36515005 9.80931676 -154.43771549 7.09985822 -152.41845703 2.63745117 C-150.71434158 2.62532089 -150.71434158 2.62532089 -148.97579956 2.61294556 C-138.12454217 2.53453081 -127.27339573 2.44657718 -116.42228508 2.34992409 C-110.84730246 2.30055586 -105.27233361 2.25423578 -99.69726562 2.21557617 C-65.91272931 1.97931715 -65.91272931 1.97931715 -32.19189453 0.07128906 C-21.44539183 -0.80053288 -10.75515373 -0.54267284 0 0 Z " fill="#F1F4F4" transform="translate(155.41845703125,35.362548828125)"/>
<path d="M0 0 C6.78137028 0.66821998 13.53473914 0.65402437 20.34375 0.6328125 C21.58511719 0.63667969 22.82648438 0.64054687 24.10546875 0.64453125 C25.32878906 0.64324219 26.55210938 0.64195313 27.8125 0.640625 C28.89982422 0.63949707 29.98714844 0.63836914 31.10742188 0.63720703 C33.9411135 0.53907213 36.63848825 0.31973684 39.44816589 0.00979614 C47.58907143 -0.7398349 55.74222193 -0.64840795 63.90942383 -0.65332031 C65.71769307 -0.65795747 67.52596134 -0.66298331 69.33422852 -0.66836548 C74.22126173 -0.68140888 79.10828126 -0.6879191 83.99532914 -0.69237614 C87.05981707 -0.69532118 90.12430138 -0.69942868 93.18878746 -0.70388031 C102.80925344 -0.71753676 112.42971099 -0.7272113 122.05018598 -0.7310822 C133.09455856 -0.73555236 144.13880673 -0.75305956 155.18314153 -0.7820828 C163.7594349 -0.80382489 172.3356936 -0.81379318 180.91201419 -0.81512332 C186.01548136 -0.81616283 191.11883131 -0.82188547 196.22226906 -0.83994293 C236.94344081 -0.97618623 236.94344081 -0.97618623 254.84375 2.5078125 C255.85429862 5.53945835 255.8703412 7.02532001 255.53125 10.1328125 C255.45261719 10.92945312 255.37398438 11.72609375 255.29296875 12.546875 C255.07060547 13.51753906 255.07060547 13.51753906 254.84375 14.5078125 C251.44287354 16.20825073 247.59008904 15.94098189 243.84375 16.1328125 C243.0496875 16.184375 242.255625 16.2359375 241.4375 16.2890625 C235.78139145 16.58583363 230.21202981 16.39156102 224.56445312 16.03076172 C216.22136168 15.53483688 207.89814268 15.32310118 199.54176331 15.24745178 C197.1683685 15.22581843 194.79507954 15.1988772 192.42175293 15.17077637 C186.54282248 15.10213423 180.66381539 15.04162607 174.78479004 14.98175049 C169.77417325 14.93048517 164.76362121 14.87562995 159.75309753 14.81593323 C157.43458074 14.78973572 155.11605591 14.7687174 152.79748535 14.7479248 C146.11581488 14.67589475 139.50996219 14.49923758 132.86437988 13.72943115 C128.04683914 13.2010529 123.1834791 13.3654034 118.34375 13.3828125 C117.29960937 13.37894531 116.25546875 13.37507813 115.1796875 13.37109375 C108.91855522 13.37863728 102.70266289 13.6137142 96.45655823 14.00228882 C87.61544574 14.51946167 78.79939998 14.68475548 69.94506836 14.72900391 C68.34799444 14.74026417 66.75092311 14.75189806 65.15385437 14.76387024 C60.88228164 14.79472733 56.61069396 14.82009188 52.33907771 14.8440671 C48.76186855 14.86468841 45.18468023 14.88815021 41.60748869 14.91160429 C33.18064841 14.96683501 24.75378983 15.01763779 16.3269043 15.06542969 C7.63326347 15.11479951 -1.06031288 15.1711174 -9.75388819 15.23085082 C-17.23953416 15.28208219 -24.72519746 15.32942928 -32.2108888 15.37353837 C-36.67359514 15.39985233 -41.13628098 15.42757923 -45.59895515 15.4589119 C-49.7777495 15.48805513 -53.95654372 15.51235194 -58.13538933 15.53281212 C-59.67176222 15.54114814 -61.20812677 15.55121772 -62.74447632 15.56310081 C-64.83198177 15.57897436 -66.9194254 15.5887237 -69.00697327 15.59683228 C-70.76248804 15.60732825 -70.76248804 15.60732825 -72.55346775 15.61803627 C-75.15625 15.5078125 -75.15625 15.5078125 -76.15625 14.5078125 C-76.25476171 12.67665367 -76.28597629 10.84161317 -76.28125 9.0078125 C-76.28382812 8.0075 -76.28640625 7.0071875 -76.2890625 5.9765625 C-76.15625 3.5078125 -76.15625 3.5078125 -75.15625 2.5078125 C-72.69956027 2.37153206 -70.26738094 2.29671625 -67.80859375 2.26171875 C-66.24836698 2.23000154 -64.68814582 2.19800781 -63.12792969 2.16577148 C-62.30562866 2.15037323 -61.48332764 2.13497498 -60.6361084 2.11911011 C-47.58301064 1.8685711 -34.60528566 1.45428186 -21.60522461 0.16821289 C-14.30593517 -0.55049684 -7.30576856 -0.74251614 0 0 Z " fill="#F6F8F7" transform="translate(78.15625,111.4921875)"/>
<path d="M0 0 C0.33 0 0.66 0 1 0 C1 3.63 1 7.26 1 11 C1.66 11.33 2.32 11.66 3 12 C1.68 11.67 0.36 11.34 -1 11 C-2.26264601 6.70700357 -1.62950412 4.12168689 0 0 Z " fill="#344A41" transform="translate(2,186)"/>
<path d="M0 0 C0.99 0.33 1.98 0.66 3 1 C2.835 1.66 2.67 2.32 2.5 3 C1.87816701 6.73099794 1.93591074 10.21873378 2 14 C1.67 14 1.34 14 1 14 C-0.20568053 9.32798795 -0.09382426 4.78503708 0 0 Z " fill="#72817F" transform="translate(332,223)"/>
</svg>
